<svg id="b0209017-4b11-4cf7-aaeb-c0fa33146ad9" data-name="a25fc5a1-ed11-418c-864a-de143f2aaa3c" xmlns="http://www.w3.org/2000/svg" xmlns:xlink="http://www.w3.org/1999/xlink" viewBox="65 0 356 475.17"><defs><radialGradient id="aa8e5569-317f-4d4c-aa22-5c0afc9ceab6" cx="-165.7" cy="651.35" r="45.88" gradientTransform="translate(-1249.49 -4.85) rotate(-90) scale(1.98 1.84)" gradientUnits="userSpaceOnUse"><stop offset="0" stop-color="#fd5"/><stop offset="0.1" stop-color="#fd5"/><stop offset="0.5" stop-color="#ff543e"/><stop offset="1" stop-color="#c837ab"/></radialGradient><radialGradient id="bcdc09c5-89ba-4521-a7ca-ba80bb46a0ab" cx="229.31" cy="446.05" r="45.88" gradientTransform="matrix(0.17, 0.87, -3.58, 0.72, 1465.59, -288.78)" gradientUnits="userSpaceOnUse"><stop offset="0" stop-color="#3771c8"/><stop offset="0.13" stop-color="#3771c8"/><stop offset="1" stop-color="#60f" stop-opacity="0"/></radialGradient><clipPath id="a97f3c6e-e39c-4389-836c-2af058d7cf81" transform="translate(74)"><path d="M274.24,443.39A24.26,24.26,0,0,1,250,467.65H95.72a24.28,24.28,0,0,1-24.3-24.26h0V54.25a24.22,24.22,0,0,1,24.2-24.2h12.93A3.38,3.38,0,0,1,112,33.36h0v2.23a12.21,12.21,0,0,0,12.2,12.19h97.37a12.18,12.18,0,0,0,12.18-12.16h0V33.39A3.38,3.38,0,0,1,237.1,30h13a24.23,24.23,0,0,1,24.21,24.2h0Z" style="fill:none"/></clipPath></defs><g id="a61b249b-dcf5-456c-b0b0-85ba469a5351" data-name="usr-qrcode-lg"><polygon points="103.98 151.7 91.84 151.7 91.84 127.42 103.98 127.42 103.98 139.56 128.24 139.56 128.24 151.7 116.1 151.7 116.1 163.86 103.98 163.86 103.98 151.7" style="fill:#020303"/><rect x="116.1" y="285.24" width="12.14" height="12.14" style="fill:#020303"/><polygon points="116.1 115.3 116.1 103.16 91.84 103.16 91.84 115.3 103.98 115.3 103.98 127.42 116.1 127.42 116.1 115.3" style="fill:#020303"/><path d="M78.52,103.16v60.78h48.66v12.14h12V103.16Zm48.66,48.54H90.62V115.24h36.56Z" transform="translate(74)" style="fill:#020303"/><polygon points="31.14 176 19 176 19 188.12 43.44 188.12 43.44 176 31.14 176" style="fill:#020303"/><polygon points="31.14 212.46 43.44 212.46 43.44 224.6 55.54 224.6 55.54 188.14 43.44 188.14 43.44 200.28 19.14 200.28 19.14 224.58 31.28 224.58 31.14 212.46" style="fill:#020303"/><rect x="91.84" y="224.6" width="12.14" height="24.26" style="fill:#020303"/><rect x="128.24" y="103.22" width="12.14" height="36.46" style="fill:#020303"/><rect x="128.24" y="151.76" width="12.14" height="12.14" style="fill:#020303"/><rect x="176.84" y="127.48" width="12.14" height="12.14" style="fill:#020303"/><polygon points="55.46 127.48 43.44 127.48 43.44 139.62 55.54 139.62 55.46 127.48" style="fill:#020303"/><path d="M-55,103.16V163.9H5.74V103.22Zm48.6,48.66H-42.82V115.39H-6.36Z" transform="translate(74)" style="fill:#020303"/><polygon points="176.84 176.06 176.84 188.16 164.74 188.16 164.74 176.06 140.44 176.06 140.44 188.16 128.3 188.16 128.3 176.06 91.84 176.06 91.84 163.9 79.7 163.9 79.7 176.06 67.56 176.06 67.56 188.16 79.7 188.16 79.7 212.46 91.84 212.46 91.84 200.32 103.98 200.32 103.98 224.6 116.1 224.6 116.1 200.32 152.56 200.32 152.56 212.46 128.28 212.46 128.28 224.6 152.56 224.6 152.56 236.74 164.7 236.74 164.7 200.28 176.82 200.28 176.82 212.42 188.96 212.42 188.96 236.72 201.1 236.72 201.1 224.58 213.26 224.58 213.26 212.42 201.1 212.42 201.1 200.28 188.96 200.28 188.96 188.14 201.1 188.14 201.1 176.02 176.84 176.06" style="fill:#020303"/><rect x="43.44" y="260.94" width="12.12" height="12.14" style="fill:#020303"/><path d="M-54.82,236.62l-.18,60.7H5.88v-60.7Zm48.6,48.56h-36.5V248.72H-6.26Z" transform="translate(74)" style="fill:#020303"/><rect x="164.82" y="236.6" width="12.12" height="12.12" style="fill:#020303"/><polygon points="176.94 260.86 164.82 260.86 164.82 273 152.54 273 152.54 260.86 140.4 260.86 140.4 248.72 152.54 248.72 152.54 236.6 128.24 236.6 128.24 224.46 116.1 224.46 116.1 248.72 103.98 248.72 103.98 260.86 91.84 260.86 91.84 297.32 103.98 297.32 103.98 285.18 116.1 285.18 116.1 273.04 140.4 273.04 140.4 297.32 152.54 297.32 152.54 285.18 164.68 285.18 164.68 297.32 188.94 297.32 188.94 285.18 201.08 285.18 201.08 273.04 176.8 273.04 176.94 260.86" style="fill:#020303"/><polygon points="67.7 224.4 79.84 224.4 79.84 212.26 67.56 212.26 67.7 224.4" style="fill:#020303"/><polygon points="189.08 248.66 189.08 260.8 201.22 260.8 201.22 272.96 213.36 272.96 213.36 236.5 201.22 236.5 201.22 248.6 189.08 248.66" style="fill:#020303"/><rect x="201.22" y="285.1" width="12.14" height="12.14" style="fill:#020303"/><rect x="201.22" y="187.98" width="12.14" height="12.14" style="fill:#020303"/><path d="M-28.08,224.74c-19.16,0-24.76,0-25.84.12A22.29,22.29,0,0,0-63,227.1,18.29,18.29,0,0,0-68.26,231a19.64,19.64,0,0,0-5.32,11.16c-.3,2.14-.4,2.58-.42,13.54v14.9c0,19.14,0,24.74.12,25.84a23.43,23.43,0,0,0,2.18,8.86A19.4,19.4,0,0,0-59.16,315.5a34.06,34.06,0,0,0,6.66.88H-3.9a30.86,30.86,0,0,0,6.9-.9,19.21,19.21,0,0,0,12.52-10.24,22.45,22.45,0,0,0,2.16-8.7v-52a22.31,22.31,0,0,0-2.2-8.78,17.78,17.78,0,0,0-4-5.38A20,20,0,0,0,.3,225.06c-2.14-.3-2.58-.4-13.54-.42Z" transform="translate(74)" style="fill:url(#aa8e5569-317f-4d4c-aa22-5c0afc9ceab6)"/><path d="M-28.08,224.74c-19.16,0-24.76,0-25.84.12A22.29,22.29,0,0,0-63,227.1,18.29,18.29,0,0,0-68.26,231a19.64,19.64,0,0,0-5.32,11.16c-.3,2.14-.4,2.58-.42,13.54v14.9c0,19.14,0,24.74.12,25.84a23.43,23.43,0,0,0,2.18,8.86A19.4,19.4,0,0,0-59.16,315.5a34.06,34.06,0,0,0,6.66.88H-3.9a30.86,30.86,0,0,0,6.9-.9,19.21,19.21,0,0,0,12.52-10.24,22.45,22.45,0,0,0,2.16-8.7v-52a22.31,22.31,0,0,0-2.2-8.78,17.78,17.78,0,0,0-4-5.38A20,20,0,0,0,.3,225.06c-2.14-.3-2.58-.4-13.54-.42Z" transform="translate(74)" style="fill:url(#bcdc09c5-89ba-4521-a7ca-ba80bb46a0ab)"/><path d="M-28.1,236.74c-9.2,0-10.36,0-14,.22a24.93,24.93,0,0,0-8.24,1.56,16.77,16.77,0,0,0-6,4,16.43,16.43,0,0,0-4,6,24.58,24.58,0,0,0-1.58,8.22c-.16,3.62-.2,4.76-.2,14s0,10.36.2,14A24.83,24.83,0,0,0-60.34,293a17.24,17.24,0,0,0,10,10,24.83,24.83,0,0,0,8.22,1.58c3.62.16,4.78.2,14,.2s10.36,0,14-.2A24.7,24.7,0,0,0-5.88,303a16.77,16.77,0,0,0,6-4A16.61,16.61,0,0,0,4,293a25.35,25.35,0,0,0,1.58-8.22c.16-3.62.2-4.78.2-14s0-10.34-.2-14A25.09,25.09,0,0,0,4,248.52a16.35,16.35,0,0,0-3.9-6,16.77,16.77,0,0,0-6-4A24.93,24.93,0,0,0-14.12,237c-3.62-.18-4.76-.22-14-.22Zm-3,6h3c9,0,10.12,0,13.7.18a19,19,0,0,1,6.28,1.18,10.31,10.31,0,0,1,3.9,2.64,10.75,10.75,0,0,1,2.54,3.9,19.09,19.09,0,0,1,1.16,6.3c.16,3.56.2,4.64.2,13.68s0,10.12-.2,13.68a19.09,19.09,0,0,1-1.16,6.3,10.59,10.59,0,0,1-2.54,3.88A10.34,10.34,0,0,1-8.12,297a18.47,18.47,0,0,1-6.28,1.16c-3.58.18-4.66.2-13.7.2s-10.12,0-13.68-.2a18.59,18.59,0,0,1-6.3-1.16,11.28,11.28,0,0,1-6.44-6.42,19.09,19.09,0,0,1-1.16-6.3c-.16-3.56-.2-4.64-.2-13.68s0-10.12.2-13.7a19,19,0,0,1,1.16-6.28,10.75,10.75,0,0,1,2.54-3.9,10.88,10.88,0,0,1,4-2.54,18.59,18.59,0,0,1,6.3-1.16c3.12-.14,4.32-.18,10.64-.2ZM-10,248.36a4,4,0,0,0-4,4,4,4,0,0,0,4,4,4,4,0,0,0,4-4A4,4,0,0,0-10,248.36Zm-18,4.74a17.4,17.4,0,0,0-17.4,17.4A17.4,17.4,0,0,0-28,287.9a17.4,17.4,0,0,0,17.4-17.4A17.41,17.41,0,0,0-28,253.1Zm0,6.12a11.3,11.3,0,0,1,11.3,11.3A11.3,11.3,0,0,1-28,281.82a11.3,11.3,0,0,1-11.3-11.3v0A11.3,11.3,0,0,1-28.1,259.3Z" transform="translate(74)" style="fill:#fff"/></g><path d="M274.24,443.39A24.26,24.26,0,0,1,250,467.65H95.72a24.28,24.28,0,0,1-24.3-24.26h0V54.25a24.22,24.22,0,0,1,24.2-24.2h12.93A3.38,3.38,0,0,1,112,33.36h0v2.23a12.21,12.21,0,0,0,12.2,12.19h97.37a12.18,12.18,0,0,0,12.18-12.16h0V33.39A3.38,3.38,0,0,1,237.1,30h13a24.2,24.2,0,0,1,24.21,24.18h0Z" transform="translate(74)" style="fill:#fff"/><path d="M251.89,22.54H93.79a30,30,0,0,0-30,30V445.07a30.1,30.1,0,0,0,30.09,30.1h158A30.1,30.1,0,0,0,282,445.09h0V52.55a30,30,0,0,0-30-30h-.11Zm22.34,420.85A24.26,24.26,0,0,1,250,467.65H95.71a24.3,24.3,0,0,1-24.29-24.26V54.23A24.22,24.22,0,0,1,95.62,30h12.93A3.38,3.38,0,0,1,112,33.31h0v.07h0v2.23A12.22,12.22,0,0,0,124.2,47.8h97.37a12.18,12.18,0,0,0,12.18-12.18h0V33.39A3.38,3.38,0,0,1,237.09,30h13A24.19,24.19,0,0,1,274.3,54.17h0Z" transform="translate(74)" style="fill:#010202"/><g style="clip-path:url(#a97f3c6e-e39c-4389-836c-2af058d7cf81)"><g id="fb289169-e06d-4ca5-85de-0bf6b2722aa1" data-name="usr-scan-view"><g id="e77e3924-dfef-439a-bb18-cadf5668e9a1" data-name="usr-scan-bars"><rect x="142.18" y="27.57" width="209.34" height="2.48" style="fill:#ce141e"/><rect x="142.2" y="22.11" width="209.34" height="1.25" style="fill:#ce141e;opacity:0.8999999761581421;isolation:isolate"/><rect x="142.2" y="16.51" width="209.34" height="1.25" style="fill:#ce141e;opacity:0.800000011920929;isolation:isolate"/><rect x="142.2" y="11.06" width="209.34" height="1.25" style="fill:#ce141e;opacity:0.699999988079071;isolation:isolate"/><rect x="142.2" y="5.61" width="209.34" height="1.25" style="fill:#ce141e;opacity:0.6000000238418579;isolation:isolate"/><rect x="142.2" width="209.34" height="1.25" style="fill:#ce141e;opacity:0.5;isolation:isolate"/></g><g id="f06cefb7-0a11-435d-828f-bc4e29b38b62" data-name="user-qrcode-sm"><polygon points="240.78 224.56 234.71 224.56 234.71 212.43 240.78 212.43 240.78 218.5 252.91 218.5 252.91 224.56 246.84 224.56 246.84 230.65 240.78 230.65 240.78 224.56" style="fill:#020303"/><rect x="246.84" y="291.34" width="6.07" height="6.07" style="fill:#020303"/><polygon points="246.84 206.37 246.84 200.29 234.71 200.29 234.71 206.37 240.78 206.37 240.78 212.43 246.84 212.43 246.84 206.37" style="fill:#020303"/><path d="M191.05,200.3v30.39h24.37v6.07h6V200.3Zm24.37,24.27H197.1V206.39h18.32Z" transform="translate(74)" style="fill:#020303"/><polygon points="204.36 236.72 198.29 236.72 198.29 242.78 210.51 242.78 210.51 236.72 204.36 236.72" style="fill:#020303"/><polygon points="204.36 254.94 210.51 254.94 210.51 261.01 216.56 261.01 216.56 242.78 210.51 242.78 210.51 248.85 198.36 248.85 198.36 261 204.43 261 204.36 254.94" style="fill:#020303"/><rect x="234.71" y="261.02" width="6.07" height="12.13" style="fill:#020303"/><rect x="252.91" y="200.33" width="6.07" height="18.23" style="fill:#020303"/><rect x="252.91" y="224.6" width="6.07" height="6.07" style="fill:#020303"/><rect x="277.21" y="212.46" width="6.07" height="6.07" style="fill:#020303"/><polygon points="216.52 212.46 210.51 212.46 210.51 218.53 216.56 218.53 216.52 212.46" style="fill:#020303"/><path d="M124.29,200.3v30.37h30.37V200.33Zm24.3,24.33H130.42V206.39h18.23Z" transform="translate(74)" style="fill:#020303"/><polygon points="277.21 236.75 277.21 242.79 271.16 242.79 271.16 236.75 259.01 236.75 259.01 242.79 252.94 242.79 252.94 236.75 234.71 236.75 234.71 230.66 228.64 230.66 228.64 236.75 222.57 236.75 222.57 242.79 228.64 242.79 228.64 254.94 234.71 254.94 234.71 248.88 240.78 248.88 240.78 261.01 246.84 261.01 246.84 248.88 265.07 248.88 265.07 254.94 252.93 254.94 252.93 261.01 265.07 261.01 265.07 267.08 271.14 267.08 271.14 248.85 277.2 248.85 277.2 254.93 283.27 254.93 283.27 267.07 289.34 267.07 289.34 261 295.42 261 295.42 254.93 289.34 254.93 289.34 248.85 283.27 248.85 283.27 242.78 289.34 242.78 289.34 236.72 277.21 236.75" style="fill:#020303"/><rect x="210.51" y="279.19" width="6.06" height="6.07" style="fill:#020303"/><path d="M124.42,267l-.11,30.36h30.42V267Zm24.3,24.28h-18.3v-18.2h18.23Z" transform="translate(74)" style="fill:#020303"/><rect x="271.2" y="267.02" width="6.06" height="6.06" style="fill:#020303"/><polygon points="277.26 279.14 271.2 279.14 271.2 285.21 265.06 285.21 265.06 279.14 258.99 279.14 258.99 273.07 265.06 273.07 265.06 267.01 252.91 267.01 252.91 260.94 246.84 260.94 246.84 273.07 240.78 273.07 240.78 279.14 234.71 279.14 234.71 297.38 240.78 297.38 240.78 291.31 246.84 291.31 246.84 285.24 258.99 285.24 258.99 297.38 265.06 297.38 265.06 291.31 271.13 291.31 271.13 297.38 283.26 297.38 283.26 291.31 289.33 291.31 289.33 285.24 277.19 285.24 277.26 279.14" style="fill:#020303"/><polygon points="222.64 260.92 228.71 260.92 228.71 254.84 222.57 254.84 222.64 260.92" style="fill:#020303"/><polygon points="283.33 273.05 283.33 279.12 289.4 279.12 289.4 285.19 295.47 285.19 295.47 266.96 289.4 266.96 289.4 273.01 283.33 273.05" style="fill:#020303"/><rect x="289.4" y="291.27" width="6.07" height="6.07" style="fill:#020303"/><rect x="289.4" y="242.71" width="6.07" height="6.07" style="fill:#020303"/></g><g id="efde0219-04d1-44fd-9252-23a897763e1c" data-name="usr-border"><polygon id="efd71973-e80c-46f6-be01-eb46f98ec5d0" data-name="ab7bc1fd-06f8-4794-82e8-dd2d472b30d6" points="283.32 188.12 307.59 188.12 307.59 212.4 319.74 212.4 319.74 175.94 283.28 175.94 283.32 188.12" style="fill:#020303"/><polygon id="bcd9ded1-1da2-4f96-9677-4ffa41c62c7b" data-name="be05970b-de35-4ade-af3e-af52c224bb25" points="186.21 212.4 186.21 188.19 210.5 188.19 210.5 176.06 174.04 176.06 174.04 212.53 186.21 212.4" style="fill:#020303"/><polygon id="bb6d21d2-61c7-4a27-8071-c3ae39719522" data-name="a2dbbee0-509f-4f0c-bb5e-99206db3ae0a" points="210.5 309.57 186.14 309.57 186.14 285.31 174.04 285.31 174.04 321.76 210.5 321.76 210.5 309.57" style="fill:#020303"/><polygon id="f0144f0d-60b1-457b-8ab9-da339740eb98" data-name="bfc1f1c9-e3e8-4c19-beef-6dea697bae9e" points="307.59 285.31 307.59 309.57 283.25 309.57 283.25 321.71 319.71 321.71 319.71 285.25 307.59 285.31" style="fill:#020303"/></g></g><g id="b50535c5-6b5a-433a-9b93-3e0d501dd7ad" data-name="usr-campaign-view"><g id="a5121881-e65c-4fbe-b902-8683399d8976" data-name="usr-logo" style="opacity:0"><path d="M193.93,397.52a1,1,0,0,0,.79.67,1.6,1.6,0,0,0,1-.28,40.3,40.3,0,0,0,3.34-3.57q1.59-1.92,3-3.82t2.81-3.73c.92-1.21,1.81-2.31,2.67-3.28.32-.34.56-.42.74-.23a.88.88,0,0,1,.09.86c-.55,1-1.1,1.93-1.65,2.84s-1.11,1.84-1.7,2.77c-1.21,1.87-2.46,3.87-3.73,6a27.11,27.11,0,0,1-4.19,5.41,4,4,0,0,1-5.6.83h0l-.33-.28a3.84,3.84,0,0,1-1.59-2.65,38,38,0,0,1,.12-7.83,80.42,80.42,0,0,1,1.7-9.5q1.18-4.94,2.85-9.74t3.67-9.43q2-4.59,4.16-8.54c.67-1.15,1.33-2.24,2-3.28a28.61,28.61,0,0,1,2.11-2.9,2.45,2.45,0,0,1,1-.83,1.43,1.43,0,0,1,1.26.07,2.11,2.11,0,0,1,1.12,2.35,44.61,44.61,0,0,1-1.44,7.33,52.33,52.33,0,0,1-2.5,6.88,58,58,0,0,1-3.28,6.37,66.55,66.55,0,0,1-3.88,5.8,1.5,1.5,0,0,0-.26.44,5.49,5.49,0,0,1-.21.51q-.87,2.55-1.73,5.61t-1.46,6a51.57,51.57,0,0,0-.89,5.38A14.42,14.42,0,0,0,193.93,397.52Zm14.49-45.13a90.73,90.73,0,0,0-4.53,9.43l-4,9.68a11.06,11.06,0,0,0,1.32-1.94c.53-.92,1.09-2,1.68-3.13s1.17-2.43,1.76-3.79,1.13-2.67,1.64-3.95,1-2.47,1.35-3.6a18.11,18.11,0,0,0,.78-2.7Z" transform="translate(74)"/><path d="M205.19,390.32a19.78,19.78,0,0,1,2.23-9.81,11.33,11.33,0,0,1,3-3.6,6.89,6.89,0,0,1,4.2-1.46,3.12,3.12,0,0,1,1.9,1.33,3.25,3.25,0,0,1,.39,2.49,10.51,10.51,0,0,1-.68,2.39,7.13,7.13,0,0,1-1.5,2.07c-.35.34-.84.78-1.46,1.34s-1.24,1.12-1.82,1.72a14,14,0,0,0-1.53,1.81,3,3,0,0,0-.65,1.56c-.11,1.11,0,1.82.47,2.14a2.37,2.37,0,0,0,1.68.38,6.08,6.08,0,0,0,2.08-.61c.71-.34,1.27-.63,1.7-.89a13.78,13.78,0,0,0,1.71-1.43c.63-.57,1.25-1.18,1.87-1.82l1.82-1.84,1.47-1.47c.3-.32.58-.65.85-1a3.92,3.92,0,0,1,.91-.76,1.55,1.55,0,0,1,.74-.06c.17,0,.14.36-.09.95a12,12,0,0,1-1.15,2c-.45.64-.93,1.27-1.44,1.91-.7.85-1.45,1.74-2.26,2.68a27.9,27.9,0,0,1-2.52,2.58,18.65,18.65,0,0,1-2.76,2,8.7,8.7,0,0,1-3,1.11,6,6,0,0,1-4.43-1.21Q205.2,393.52,205.19,390.32Zm9.4-12a6.47,6.47,0,0,0-2.5,1.65,6.31,6.31,0,0,0-1.32,3,24,24,0,0,0,2.32-2.07,6.38,6.38,0,0,0,1.5-2.51Z" transform="translate(74)"/><path d="M236.54,383a13.45,13.45,0,0,0-4.12,2.37,29.41,29.41,0,0,0-3.55,3.42c-1.12,1.25-2.2,2.55-3.26,3.9s-2.11,2.6-3.17,3.76a1.27,1.27,0,0,1-1.77-.2,1,1,0,0,1-.17-.28,1.51,1.51,0,0,1,.12-1.12c.28-.74.54-1.56.79-2.48s.5-1.88.74-2.89.48-2,.73-3,.52-2,.79-2.89a1,1,0,0,1,.56-.58,2.61,2.61,0,0,1,1-.23,2.17,2.17,0,0,1,.94.16,1,1,0,0,1,.53.55,4.36,4.36,0,0,1-.15,2.21c-.25.85-.54,1.7-.85,2.52.7-.67,1.48-1.46,2.32-2.36a24.5,24.5,0,0,1,2.76-2.53A15.45,15.45,0,0,1,234,381.4a7,7,0,0,1,3.49-.61,3.38,3.38,0,0,1,1.5.75C239.29,381.83,236.54,383,236.54,383Z" transform="translate(74)"/><path d="M238.62,397.61a3.77,3.77,0,0,1-2.85-.53,3.53,3.53,0,0,1-1.59-2.5,18.93,18.93,0,0,1-.21-3.19,30.91,30.91,0,0,1,.21-3.6c.13-1.21.3-2.38.53-3.53s.46-2.16.7-3.05c.2-.38,1.75-.46,2.2-.27a5.17,5.17,0,0,1,1.31.54,2.13,2.13,0,0,1,.47,1.1,6.07,6.07,0,0,1-.35,2.64c-.34,1.21-.71,2.47-1.12,3.79s-.72,2.53-1,3.65-.21,1.84.1,2.13.64.23,1.09-.21a9.59,9.59,0,0,0,1.46-2c.51-.87,1.05-1.88,1.61-3.05l1.64-3.45c.54-1.15,1-2.2,1.47-3.18s.79-1.71,1.07-2.22c.08-.17.27-.24.56-.22a2.44,2.44,0,0,1,.91.3,4,4,0,0,1,.87.67,1.88,1.88,0,0,1,.52.93,15.94,15.94,0,0,1,.32,4.82,39.75,39.75,0,0,1-.69,4.86c1.46-1.22,2.88-2.31,4.28-3.27a30.54,30.54,0,0,1,4.51-2.58,2.14,2.14,0,0,1,.92-.28,4.35,4.35,0,0,1,1.14,0,.46.46,0,0,1,.5.42h0c0,.23-.35.6-1.1,1.11a63.2,63.2,0,0,0-5.49,4.15c-1.86,1.56-3.59,3-5.21,4.42a1.62,1.62,0,0,0-.53,1,62.5,62.5,0,0,1-1.71,7.88c-.81,2.88-1.79,5.78-2.92,8.7a76.79,76.79,0,0,1-3.83,8.35,42.52,42.52,0,0,1-4.43,6.81,8.58,8.58,0,0,1-3.14,2.56,4.44,4.44,0,0,1-3,.32,3.91,3.91,0,0,1-2.28-1.9,8.53,8.53,0,0,1-.93-4.12,34.34,34.34,0,0,1,2.53-7.65,54,54,0,0,1,4.14-7.29q2.41-3.59,5.32-7.16t6.11-7.24a3.14,3.14,0,0,0,.77-1.49,21.35,21.35,0,0,0,.61-2.51,23.48,23.48,0,0,0,.34-2.52,4.29,4.29,0,0,0,0-1.43q-.6,1.14-1.32,2.7c-.48,1-1,2-1.49,3a21.76,21.76,0,0,1-1.55,2.47A2.26,2.26,0,0,1,238.62,397.61Zm-7,27.65q.65.25,1.89-1.35a41.71,41.71,0,0,0,2.79-4.31c1-1.8,2.09-3.81,3.17-6s2.06-4.38,3-6.47,1.65-4,2.25-5.69a16.2,16.2,0,0,0,1-3.62c-1,1.18-2.16,2.61-3.39,4.27s-2.43,3.42-3.62,5.26-2.31,3.71-3.36,5.61a56.06,56.06,0,0,0-2.63,5.33,21.4,21.4,0,0,0-1.39,4.35,3.07,3.07,0,0,0,.29,2.62Z" transform="translate(74)"/><path d="M119.84,377.68H105.28v10.2h16.26v8H96.3v-43h24.42v8H105.28v8.91h14.56Z" transform="translate(74)"/><path d="M136.86,384.82l-2.82,11h-9.27l12.09-42.94H148.6l12.27,42.94h-9.63l-3.05-11Zm10-7.26-2.44-9.11c-.7-2.55-1.4-5.74-2-8.29h-.12c-.59,2.55-1.17,5.8-1.82,8.29l-2.35,9.11Z" transform="translate(74)"/><path d="M168.91,361.06H158.29V352.9h30.4v8.16h-10.8v34.78h-9Z" transform="translate(74)"/><line x1="313.84" y1="407.66" x2="169.49" y2="407.66" style="fill:none"/><polygon points="310.34 408.29 310.34 406.17 166.55 406.17 166.55 409.19 310.9 409.19 310.9 407.57 310.34 408.29"/><polygon points="310.9 407.57 312.01 406.13 310.34 406.13 310.34 406.17 310.9 406.17 310.9 407.57"/><polygon points="310.9 407.57 310.9 406.17 310.34 406.17 310.34 408.29 310.9 407.57"/></g><g id="a27459c1-aac3-4899-bbb2-685c20143c24" data-name="usr-x" style="opacity:0"><rect x="171.89" y="215.69" width="2" height="102.32" transform="translate(-64.05 200.41) rotate(-45)" style="fill:#010202"/><rect x="121.73" y="265.85" width="102.32" height="2" transform="translate(-64.05 200.41) rotate(-45)" style="fill:#010202"/></g><g id="ac364e06-3ac8-43f4-beb3-3faae513e229" data-name="usr-du" style="opacity:0"><path d="M97.42,96.81A153.67,153.67,0,0,1,122.59,95c15.65,0,25.79,3,33.73,9.5,8.56,6.86,13.93,17.81,13.93,33.51,0,17-5.74,28.76-13.68,36-8.68,7.79-21.88,11.48-38,11.48a149.6,149.6,0,0,1-21.15-1.31Zm18.66,72.58a31.88,31.88,0,0,0,6.47.39c16.87.14,27.87-9.89,27.87-31.13.12-18.47-9.9-28.24-25.91-28.24a35.66,35.66,0,0,0-8.43.8Z" transform="translate(74)"/><path d="M201,95.62v51.19c0,15.3,5.37,23.09,14.9,23.09,9.78,0,15.16-7.39,15.16-23.09V95.62h18.57v49.87c0,27.44-12.83,40.5-34.34,40.5-20.77,0-33-12.4-33-40.77V95.62Z" transform="translate(74)"/></g></g></g></svg>