<svg id="a25fc5a1-ed11-418c-864a-de143f2aaa3c" data-name="Layer 1" xmlns="http://www.w3.org/2000/svg"
	xmlns:xlink="http://www.w3.org/1999/xlink" viewBox="55 0 337 475.17">
	<defs>
		<clipPath id="fc35738b-c5d1-42ac-9bb3-e5985a67d4c0">
			<path
				d="M329.24,443.39A24.26,24.26,0,0,1,305,467.65H150.72a24.28,24.28,0,0,1-24.3-24.26h0V54.25a24.22,24.22,0,0,1,24.2-24.2h12.93A3.38,3.38,0,0,1,167,33.36h0v2.23a12.21,12.21,0,0,0,12.2,12.19h97.37a12.18,12.18,0,0,0,12.18-12.16h0V33.39A3.38,3.38,0,0,1,292.1,30h13a24.23,24.23,0,0,1,24.21,24.2h0Z"
				style="fill:none" />
		</clipPath>
	</defs>
	<g id="ff05981b-cb31-4719-a468-22afb782b6b3" data-name="usr-qrcode-lg">
		<polygon
			points="84.98 151.7 72.84 151.7 72.84 127.42 84.98 127.42 84.98 139.56 109.24 139.56 109.24 151.7 97.1 151.7 97.1 163.86 84.98 163.86 84.98 151.7"
			style="fill:#020303" />
		<rect x="97.1" y="285.24" width="12.14" height="12.14" style="fill:#020303" />
		<polygon
			points="97.1 115.3 97.1 103.16 72.84 103.16 72.84 115.3 84.98 115.3 84.98 127.42 97.1 127.42 97.1 115.3"
			style="fill:#020303" />
		<path d="M133.52,103.16v60.78h48.66v12.14h12V103.16Zm48.66,48.54H145.62V115.24h36.56Z" style="fill:#020303" />
		<polygon points="12.14 176 0 176 0 188.12 24.44 188.12 24.44 176 12.14 176" style="fill:#020303" />
		<polygon
			points="12.14 212.46 24.44 212.46 24.44 224.6 36.54 224.6 36.54 188.14 24.44 188.14 24.44 200.28 0.14 200.28 0.14 224.58 12.28 224.58 12.14 212.46"
			style="fill:#020303" />
		<rect x="72.84" y="224.6" width="12.14" height="24.26" style="fill:#020303" />
		<rect x="109.24" y="103.22" width="12.14" height="36.46" style="fill:#020303" />
		<rect x="109.24" y="151.76" width="12.14" height="12.14" style="fill:#020303" />
		<rect x="157.84" y="127.48" width="12.14" height="12.14" style="fill:#020303" />
		<polygon points="36.46 127.48 24.44 127.48 24.44 139.62 36.54 139.62 36.46 127.48" style="fill:#020303" />
		<path d="M0,103.16V163.9H60.74V103.22Zm48.6,48.66H12.18V115.39H48.64Z" style="fill:#020303" />
		<polygon
			points="157.84 176.06 157.84 188.16 145.74 188.16 145.74 176.06 121.44 176.06 121.44 188.16 109.3 188.16 109.3 176.06 72.84 176.06 72.84 163.9 60.7 163.9 60.7 176.06 48.56 176.06 48.56 188.16 60.7 188.16 60.7 212.46 72.84 212.46 72.84 200.32 84.98 200.32 84.98 224.6 97.1 224.6 97.1 200.32 133.56 200.32 133.56 212.46 109.28 212.46 109.28 224.6 133.56 224.6 133.56 236.74 145.7 236.74 145.7 200.28 157.82 200.28 157.82 212.42 169.96 212.42 169.96 236.72 182.1 236.72 182.1 224.58 194.26 224.58 194.26 212.42 182.1 212.42 182.1 200.28 169.96 200.28 169.96 188.14 182.1 188.14 182.1 176.02 157.84 176.06"
			style="fill:#020303" />
		<rect x="24.44" y="260.94" width="12.12" height="12.14" style="fill:#020303" />
		<path d="M.18,236.62,0,297.32H60.88v-60.7Zm48.6,48.56H12.28V248.72H48.74Z" style="fill:#020303" />
		<rect x="145.82" y="236.6" width="12.12" height="12.12" style="fill:#020303" />
		<polygon
			points="157.94 260.86 145.82 260.86 145.82 273 133.54 273 133.54 260.86 121.4 260.86 121.4 248.72 133.54 248.72 133.54 236.6 109.24 236.6 109.24 224.46 97.1 224.46 97.1 248.72 84.98 248.72 84.98 260.86 72.84 260.86 72.84 297.32 84.98 297.32 84.98 285.18 97.1 285.18 97.1 273.04 121.4 273.04 121.4 297.32 133.54 297.32 133.54 285.18 145.68 285.18 145.68 297.32 169.94 297.32 169.94 285.18 182.08 285.18 182.08 273.04 157.8 273.04 157.94 260.86"
			style="fill:#020303" />
		<polygon points="48.7 224.4 60.84 224.4 60.84 212.26 48.56 212.26 48.7 224.4" style="fill:#020303" />
		<polygon
			points="170.08 248.66 170.08 260.8 182.22 260.8 182.22 272.96 194.36 272.96 194.36 236.5 182.22 236.5 182.22 248.6 170.08 248.66"
			style="fill:#020303" />
		<rect x="182.22" y="285.1" width="12.14" height="12.14" style="fill:#020303" />
		<rect x="182.22" y="187.98" width="12.14" height="12.14" style="fill:#020303" />
	</g>
	<g id="bc739129-962e-4919-a4e4-25abd652db73" data-name="usr-phone">
		<path
			d="M329.24,443.39A24.26,24.26,0,0,1,305,467.65H150.72a24.28,24.28,0,0,1-24.3-24.26h0V54.25a24.22,24.22,0,0,1,24.2-24.2h12.93A3.38,3.38,0,0,1,167,33.36h0v2.23a12.21,12.21,0,0,0,12.2,12.19h97.37a12.18,12.18,0,0,0,12.18-12.16h0V33.39A3.38,3.38,0,0,1,292.1,30h13a24.2,24.2,0,0,1,24.21,24.18h0Z"
			style="fill:#fff" />
		<path
			d="M306.89,22.54H148.79a30,30,0,0,0-30,30V445.07a30.1,30.1,0,0,0,30.09,30.1h158A30.1,30.1,0,0,0,337,445.09h0V52.55a30,30,0,0,0-30.1-30h0Zm22.34,420.85A24.26,24.26,0,0,1,305,467.65H150.71a24.3,24.3,0,0,1-24.29-24.26V54.23A24.22,24.22,0,0,1,150.62,30h12.93A3.38,3.38,0,0,1,167,33.31h0v.07h0v2.23A12.22,12.22,0,0,0,179.2,47.8h97.37a12.18,12.18,0,0,0,12.18-12.18h0V33.39A3.38,3.38,0,0,1,292.09,30h13A24.19,24.19,0,0,1,329.3,54.17h0Z"
			style="fill:#010202" />
		<g style="clip-path:url(#fc35738b-c5d1-42ac-9bb3-e5985a67d4c0)">
			<g id="e9ef9598-b953-4684-8822-34c9e04a97ed" data-name="usr-scan-view">
				<g id="a4fb2a1c-ffde-4324-9621-207478795641" data-name="usr-scan-bars">
					<rect x="123.18" y="27.57" width="209.34" height="2.48" style="fill:#ce141e" />
					<rect x="123.2" y="22.11" width="209.34" height="1.25"
						style="fill:#ce141e;opacity:0.8999999761581421;isolation:isolate" />
					<rect x="123.2" y="16.51" width="209.34" height="1.25"
						style="fill:#ce141e;opacity:0.800000011920929;isolation:isolate" />
					<rect x="123.2" y="11.06" width="209.34" height="1.25"
						style="fill:#ce141e;opacity:0.699999988079071;isolation:isolate" />
					<rect x="123.2" y="5.61" width="209.34" height="1.25"
						style="fill:#ce141e;opacity:0.6000000238418579;isolation:isolate" />
					<rect x="123.2" width="209.34" height="1.25" style="fill:#ce141e;opacity:0.5;isolation:isolate" />
				</g>
				<g id="bb5863c1-a556-41ae-bf73-7a5c531c4abb" data-name="usr-qrcode-sm">
					<polygon
						points="221.78 224.56 215.71 224.56 215.71 212.43 221.78 212.43 221.78 218.5 233.91 218.5 233.91 224.56 227.84 224.56 227.84 230.65 221.78 230.65 221.78 224.56"
						style="fill:#020303" />
					<rect x="227.84" y="291.34" width="6.07" height="6.07" style="fill:#020303" />
					<polygon
						points="227.84 206.37 227.84 200.29 215.71 200.29 215.71 206.37 221.78 206.37 221.78 212.43 227.84 212.43 227.84 206.37"
						style="fill:#020303" />
					<path d="M246.05,200.3v30.39h24.37v6.07h6V200.3Zm24.37,24.27H252.1V206.39h18.32Z"
						style="fill:#020303" />
					<polygon
						points="185.36 236.72 179.29 236.72 179.29 242.78 191.51 242.78 191.51 236.72 185.36 236.72"
						style="fill:#020303" />
					<polygon
						points="185.36 254.94 191.51 254.94 191.51 261.01 197.56 261.01 197.56 242.78 191.51 242.78 191.51 248.85 179.36 248.85 179.36 261 185.43 261 185.36 254.94"
						style="fill:#020303" />
					<rect x="215.71" y="261.02" width="6.07" height="12.13" style="fill:#020303" />
					<rect x="233.91" y="200.33" width="6.07" height="18.23" style="fill:#020303" />
					<rect x="233.91" y="224.6" width="6.07" height="6.07" style="fill:#020303" />
					<rect x="258.21" y="212.46" width="6.07" height="6.07" style="fill:#020303" />
					<polygon points="197.52 212.46 191.51 212.46 191.51 218.53 197.56 218.53 197.52 212.46"
						style="fill:#020303" />
					<path d="M179.29,200.3v30.37h30.37V200.33Zm24.3,24.33H185.42V206.39h18.23Z" style="fill:#020303" />
					<polygon
						points="258.21 236.75 258.21 242.79 252.16 242.79 252.16 236.75 240.01 236.75 240.01 242.79 233.94 242.79 233.94 236.75 215.71 236.75 215.71 230.66 209.64 230.66 209.64 236.75 203.57 236.75 203.57 242.79 209.64 242.79 209.64 254.94 215.71 254.94 215.71 248.88 221.78 248.88 221.78 261.01 227.84 261.01 227.84 248.88 246.07 248.88 246.07 254.94 233.93 254.94 233.93 261.01 246.07 261.01 246.07 267.08 252.14 267.08 252.14 248.85 258.2 248.85 258.2 254.93 264.27 254.93 264.27 267.07 270.34 267.07 270.34 261 276.42 261 276.42 254.93 270.34 254.93 270.34 248.85 264.27 248.85 264.27 242.78 270.34 242.78 270.34 236.72 258.21 236.75"
						style="fill:#020303" />
					<rect x="191.51" y="279.19" width="6.06" height="6.07" style="fill:#020303" />
					<path d="M179.42,267l-.11,30.36h30.42V267Zm24.3,24.28h-18.3v-18.2h18.23Z" style="fill:#020303" />
					<rect x="252.2" y="267.02" width="6.06" height="6.06" style="fill:#020303" />
					<polygon
						points="258.26 279.14 252.2 279.14 252.2 285.21 246.06 285.21 246.06 279.14 239.99 279.14 239.99 273.07 246.06 273.07 246.06 267.01 233.91 267.01 233.91 260.94 227.84 260.94 227.84 273.07 221.78 273.07 221.78 279.14 215.71 279.14 215.71 297.38 221.78 297.38 221.78 291.31 227.84 291.31 227.84 285.24 239.99 285.24 239.99 297.38 246.06 297.38 246.06 291.31 252.13 291.31 252.13 297.38 264.26 297.38 264.26 291.31 270.33 291.31 270.33 285.24 258.19 285.24 258.26 279.14"
						style="fill:#020303" />
					<polygon points="203.64 260.92 209.71 260.92 209.71 254.84 203.57 254.84 203.64 260.92"
						style="fill:#020303" />
					<polygon
						points="264.33 273.05 264.33 279.12 270.4 279.12 270.4 285.19 276.47 285.19 276.47 266.96 270.4 266.96 270.4 273.01 264.33 273.05"
						style="fill:#020303" />
					<rect x="270.4" y="291.27" width="6.07" height="6.07" style="fill:#020303" />
					<rect x="270.4" y="242.71" width="6.07" height="6.07" style="fill:#020303" />
				</g>
				<g id="b784f1df-41b6-41dc-bf7a-72836fa91172" data-name="usr-border">
					<polygon id="ab7bc1fd-06f8-4794-82e8-dd2d472b30d6" data-name="a1fbfee3-baa6-4b75-97e8-ab022fca970f"
						points="264.32 188.12 288.59 188.12 288.59 212.4 300.74 212.4 300.74 175.94 264.28 175.94 264.32 188.12"
						style="fill:#020303" />
					<polygon id="be05970b-de35-4ade-af3e-af52c224bb25" data-name="b589a71d-1cd5-4a7a-93d4-eb42ad1413c7"
						points="167.21 212.4 167.21 188.19 191.5 188.19 191.5 176.06 155.04 176.06 155.04 212.53 167.21 212.4"
						style="fill:#020303" />
					<polygon id="a2dbbee0-509f-4f0c-bb5e-99206db3ae0a" data-name="a35acdc4-d87c-48f0-9b5d-a988c9067c07"
						points="191.5 309.57 167.14 309.57 167.14 285.31 155.04 285.31 155.04 321.76 191.5 321.76 191.5 309.57"
						style="fill:#020303" />
					<polygon id="bfc1f1c9-e3e8-4c19-beef-6dea697bae9e" data-name="f3458a2f-2195-412a-9b13-915a9bdb803c"
						points="288.59 285.31 288.59 309.57 264.25 309.57 264.25 321.71 300.71 321.71 300.71 285.25 288.59 285.31"
						style="fill:#020303" />
				</g>
			</g>
			<g id="be9f2d44-3881-4fa7-a7be-d28f7ce40961" data-name="usr-campaign-view">
				<g id="b7bcdf3b-d85f-4315-a21d-b1f7033dfc53" data-name="usr-logo" style="opacity:0">
					<path
						d="M248.93,397.52a1,1,0,0,0,.79.67,1.6,1.6,0,0,0,1-.28,40.3,40.3,0,0,0,3.34-3.57q1.59-1.92,3-3.82t2.81-3.73c.92-1.21,1.81-2.31,2.67-3.28.32-.34.56-.42.74-.23a.88.88,0,0,1,.09.86c-.55,1-1.1,1.93-1.65,2.84s-1.11,1.84-1.7,2.77c-1.21,1.87-2.46,3.87-3.73,6a27.11,27.11,0,0,1-4.19,5.41,4,4,0,0,1-5.6.83h0l-.33-.28a3.84,3.84,0,0,1-1.59-2.65,38,38,0,0,1,.12-7.83,80.42,80.42,0,0,1,1.7-9.5q1.18-4.94,2.85-9.74t3.67-9.43q2-4.59,4.16-8.54c.67-1.15,1.33-2.24,2-3.28a28.61,28.61,0,0,1,2.11-2.9,2.45,2.45,0,0,1,1-.83,1.43,1.43,0,0,1,1.26.07,2.11,2.11,0,0,1,1.12,2.35,44.61,44.61,0,0,1-1.44,7.33,52.33,52.33,0,0,1-2.5,6.88,58,58,0,0,1-3.28,6.37,66.55,66.55,0,0,1-3.88,5.8,1.5,1.5,0,0,0-.26.44,5.49,5.49,0,0,1-.21.51q-.87,2.55-1.73,5.61t-1.46,6a51.57,51.57,0,0,0-.89,5.38A14.42,14.42,0,0,0,248.93,397.52Zm14.49-45.13a90.73,90.73,0,0,0-4.53,9.43l-4,9.68a11.06,11.06,0,0,0,1.32-1.94c.53-.92,1.09-2,1.68-3.13s1.17-2.43,1.76-3.79,1.13-2.67,1.64-3.95,1-2.47,1.35-3.6a18.11,18.11,0,0,0,.78-2.7Z" />
					<path
						d="M260.19,390.32a19.78,19.78,0,0,1,2.23-9.81,11.33,11.33,0,0,1,3-3.6,6.89,6.89,0,0,1,4.2-1.46,3.12,3.12,0,0,1,1.9,1.33,3.25,3.25,0,0,1,.39,2.49,10.51,10.51,0,0,1-.68,2.39,7.13,7.13,0,0,1-1.5,2.07c-.35.34-.84.78-1.46,1.34s-1.24,1.12-1.82,1.72a14,14,0,0,0-1.53,1.81,3,3,0,0,0-.65,1.56c-.11,1.11,0,1.82.47,2.14a2.37,2.37,0,0,0,1.68.38,6.08,6.08,0,0,0,2.08-.61c.71-.34,1.27-.63,1.7-.89a13.78,13.78,0,0,0,1.71-1.43c.63-.57,1.25-1.18,1.87-1.82l1.82-1.84,1.47-1.47c.3-.32.58-.65.85-1a3.92,3.92,0,0,1,.91-.76,1.55,1.55,0,0,1,.74-.06c.17,0,.14.36-.09.95a12,12,0,0,1-1.15,2c-.45.64-.93,1.27-1.44,1.91-.7.85-1.45,1.74-2.26,2.68a27.9,27.9,0,0,1-2.52,2.58,18.65,18.65,0,0,1-2.76,2,8.7,8.7,0,0,1-3,1.11,6,6,0,0,1-4.43-1.21Q260.19,393.52,260.19,390.32Zm9.4-12a6.47,6.47,0,0,0-2.5,1.65,6.31,6.31,0,0,0-1.32,3,24,24,0,0,0,2.32-2.07,6.38,6.38,0,0,0,1.5-2.51Z" />
					<path
						d="M291.54,383a13.45,13.45,0,0,0-4.12,2.37,29.41,29.41,0,0,0-3.55,3.42c-1.12,1.25-2.2,2.55-3.26,3.9s-2.11,2.6-3.17,3.76a1.27,1.27,0,0,1-1.77-.2,1,1,0,0,1-.17-.28,1.51,1.51,0,0,1,.12-1.12c.28-.74.54-1.56.79-2.48s.5-1.88.74-2.89.48-2,.73-3,.52-2,.79-2.89a1,1,0,0,1,.56-.58,2.61,2.61,0,0,1,1-.23,2.17,2.17,0,0,1,.94.16,1,1,0,0,1,.53.55,4.36,4.36,0,0,1-.15,2.21c-.25.85-.54,1.7-.85,2.52.7-.67,1.48-1.46,2.32-2.36a24.5,24.5,0,0,1,2.76-2.53A15.45,15.45,0,0,1,289,381.4a7,7,0,0,1,3.49-.61,3.38,3.38,0,0,1,1.5.75C294.29,381.83,291.54,383,291.54,383Z" />
					<path
						d="M293.62,397.61a3.77,3.77,0,0,1-2.85-.53,3.53,3.53,0,0,1-1.59-2.5,18.93,18.93,0,0,1-.21-3.19,30.91,30.91,0,0,1,.21-3.6c.13-1.21.3-2.38.53-3.53s.46-2.16.7-3.05c.2-.38,1.75-.46,2.2-.27a5.17,5.17,0,0,1,1.31.54,2.13,2.13,0,0,1,.47,1.1,6.07,6.07,0,0,1-.35,2.64c-.34,1.21-.71,2.47-1.12,3.79s-.72,2.53-1,3.65-.21,1.84.1,2.13.64.23,1.09-.21a9.59,9.59,0,0,0,1.46-2c.51-.87,1.05-1.88,1.61-3.05l1.64-3.45c.54-1.15,1-2.2,1.47-3.18s.79-1.71,1.07-2.22c.08-.17.27-.24.56-.22a2.44,2.44,0,0,1,.91.3,4,4,0,0,1,.87.67,1.88,1.88,0,0,1,.52.93,15.94,15.94,0,0,1,.32,4.82,39.75,39.75,0,0,1-.69,4.86c1.46-1.22,2.88-2.31,4.28-3.27a30.54,30.54,0,0,1,4.51-2.58,2.14,2.14,0,0,1,.92-.28,4.35,4.35,0,0,1,1.14,0,.46.46,0,0,1,.5.42h0c0,.23-.35.6-1.1,1.11a63.2,63.2,0,0,0-5.49,4.15c-1.86,1.56-3.59,3-5.21,4.42a1.62,1.62,0,0,0-.53,1,62.5,62.5,0,0,1-1.71,7.88c-.81,2.88-1.79,5.78-2.92,8.7a76.79,76.79,0,0,1-3.83,8.35,42.52,42.52,0,0,1-4.43,6.81,8.58,8.58,0,0,1-3.14,2.56,4.44,4.44,0,0,1-3,.32,3.91,3.91,0,0,1-2.28-1.9,8.53,8.53,0,0,1-.93-4.12,34.34,34.34,0,0,1,2.53-7.65,54,54,0,0,1,4.14-7.29q2.42-3.59,5.32-7.16t6.11-7.24a3.14,3.14,0,0,0,.77-1.49,21.35,21.35,0,0,0,.61-2.51,23.48,23.48,0,0,0,.34-2.52,4.29,4.29,0,0,0,0-1.43q-.6,1.14-1.32,2.7c-.48,1-1,2-1.49,3a21.76,21.76,0,0,1-1.55,2.47A2.26,2.26,0,0,1,293.62,397.61Zm-7,27.65q.64.25,1.89-1.35a41.71,41.71,0,0,0,2.79-4.31c1-1.8,2.09-3.81,3.17-6s2.06-4.38,3-6.47,1.65-4,2.25-5.69a16.2,16.2,0,0,0,1-3.62c-1,1.18-2.16,2.61-3.39,4.27s-2.43,3.42-3.62,5.26-2.31,3.71-3.36,5.61a56.06,56.06,0,0,0-2.63,5.33,21.4,21.4,0,0,0-1.39,4.35,3.07,3.07,0,0,0,.29,2.62Z" />
					<path d="M174.84,377.68H160.28v10.2h16.26v8H151.3v-43h24.42v8H160.28v8.91h14.56Z" />
					<path
						d="M191.86,384.82l-2.82,11h-9.27l12.09-42.94H203.6l12.27,42.94h-9.63l-3.05-11Zm10-7.26-2.44-9.11c-.7-2.55-1.4-5.74-2-8.29h-.12c-.59,2.55-1.17,5.8-1.82,8.29l-2.35,9.11Z" />
					<path d="M223.91,361.06H213.29V352.9h30.4v8.16h-10.8v34.78h-9Z" />
					<line x1="294.84" y1="407.66" x2="150.49" y2="407.66" style="fill:none" />
					<polygon
						points="291.34 408.29 291.34 406.17 147.55 406.17 147.55 409.19 291.9 409.19 291.9 407.57 291.34 408.29" />
					<polygon
						points="291.9 407.57 293.01 406.13 291.34 406.13 291.34 406.17 291.9 406.17 291.9 407.57" />
					<polygon points="291.9 407.57 291.9 406.17 291.34 406.17 291.34 408.29 291.9 407.57" />
				</g>
				<g id="a0039eda-6a1f-40aa-b1f6-03d64b27048c" data-name="usr-x" style="opacity:0">
					<rect x="226.89" y="215.69" width="2" height="102.32"
						transform="translate(-121.94 239.3) rotate(-45)" style="fill:#010202" />
					<rect x="176.73" y="265.85" width="102.32" height="2"
						transform="translate(-121.94 239.3) rotate(-45)" style="fill:#010202" />
				</g>
				<g id="b68bf3a1-6498-4fdb-82e9-4f1cfa442f0e" data-name="usr-du" style="opacity:0">
					<path
						d="M152.42,96.81A153.67,153.67,0,0,1,177.59,95c15.65,0,25.79,3,33.73,9.5,8.56,6.86,13.93,17.81,13.93,33.51,0,17-5.74,28.76-13.68,36-8.68,7.79-21.88,11.48-38,11.48a149.6,149.6,0,0,1-21.15-1.31Zm18.66,72.58a31.88,31.88,0,0,0,6.47.39c16.87.14,27.87-9.89,27.87-31.13.12-18.47-9.9-28.24-25.91-28.24a35.66,35.66,0,0,0-8.43.8Z" />
					<path
						d="M256,95.62v51.19c0,15.3,5.37,23.09,14.9,23.09,9.78,0,15.16-7.39,15.16-23.09V95.62h18.57v49.87c0,27.44-12.83,40.5-34.34,40.5-20.77,0-33-12.4-33-40.77V95.62Z" />
				</g>
			</g>
		</g>
	</g>
</svg>