<?xml version="1.0" encoding="utf-8"?>
<!-- Generator: Adobe Illustrator 25.2.3, SVG Export Plug-In . SVG Version: 6.00 Build 0)  -->
<svg version="1.1" id="Layer_1" xmlns="http://www.w3.org/2000/svg" xmlns:xlink="http://www.w3.org/1999/xlink" x="0px" y="0px"
	 viewBox="0 0 521.111 200.889" style="enable-background:new 0 0 521.111 200.889;" xml:space="preserve">
<path id="rwd-coffee" style="opacity:0.5;fill:#A2C621;" d="M422.309,98.236c-0.377-0.57-0.582-1.002-0.37-1.723
	c1.669-5.682-1.517-10.393-7.391-10.854c-1.175-0.092-1.439-0.477-1.399-1.562c0.079-2.156,0.007-4.317,0.03-6.476
	c0.012-1.138,0.036-2.291-1.15-2.894c-1.106-0.562-2.149-0.21-3.112,0.464c-2.986,2.087-6.327,2.814-9.931,2.725
	c-3.324-0.082-6.653-0.086-9.976,0.011c-3.92,0.114-7.076,2.534-7.928,6.186c-0.286,1.227-0.745,1.478-1.897,1.566
	c-5.463,0.417-8.812,5.382-7.216,10.611c0.218,0.715,0.274,1.206-0.256,1.878c-1.025,1.302-0.698,2.898,0.791,3.475
	c0.989,0.383,1.154,1.009,1.255,1.798c0.637,4.971,1.252,9.945,1.877,14.918c1.192,9.483,2.349,18.971,3.599,28.447
	c0.448,3.395,2.957,5.466,6.39,5.49c3.792,0.027,7.585,0.006,11.378,0.007c3.559,0.001,7.118,0.005,10.677,0
	c4.305-0.006,6.618-2.039,7.145-6.256c1.779-14.226,3.562-28.451,5.342-42.677c0.096-0.768,0.247-1.319,1.172-1.676
	C422.854,101.107,423.213,99.604,422.309,98.236z M415.487,103.427c-1.782,13.868-3.501,27.745-5.241,41.619
	c-0.293,2.335-0.473,2.491-2.855,2.496c-3.441,0.008-6.883,0.002-10.324,0.002c-3.616,0-7.233-0.034-10.849,0.016
	c-1.485,0.021-2.223-0.515-2.413-2.06c-1.28-10.409-2.615-20.811-3.936-31.214c-0.455-3.583-0.888-7.17-1.394-10.746
	c-0.155-1.094-0.134-1.727,1.284-1.689c1.416,0.038,2.347-0.871,2.342-2.29c-0.005-1.298-0.797-2.094-2.178-2.294
	c-2.522-0.364-3.853-1.763-3.7-3.769c0.15-1.979,1.735-3.163,4.265-3.174c1.808-0.008,3.616-0.003,5.424-0.002
	c1.509,0,2.725-0.536,2.861-2.175c0.126-1.52-0.808-2.399-2.309-2.509c-1.089-0.08-0.95-0.572-0.552-1.23
	c0.683-1.129,1.696-1.781,3.011-1.8c3.79-0.055,7.581-0.06,11.371-0.08c0.738-0.004,1.36,0.296,1.873,0.812
	c0.506,0.508,1.039,1.138,0.849,1.828c-0.229,0.832-1.095,0.294-1.666,0.427c-0.223,0.052-0.466,0.004-0.697,0.029
	c-1.517,0.164-2.62,1.173-2.483,2.416c0.165,1.49,1.084,2.272,2.598,2.279c2.625,0.012,5.25-0.01,7.874,0.01
	c2.315,0.018,3.758,1.348,3.776,3.43c0.017,2.058-1.43,3.48-3.747,3.494c-6.358,0.038-12.715,0.013-19.073,0.017
	c-0.583,0-1.179-0.043-1.745,0.064c-1.251,0.237-1.998,1.086-1.94,2.32c0.057,1.197,0.766,2.068,2.07,2.218
	c0.519,0.06,1.048,0.034,1.573,0.034c8.166,0.002,16.332,0.023,24.498-0.023C415.264,101.875,415.655,102.114,415.487,103.427z"/>
<g id="rwd-cone">
	<path style="fill:#A2C621;" d="M277.575,104.196c1.631,0.001,3.264-0.038,4.893,0.009c2.568,0.075,3.936,2.096,2.928,4.446
		c-5.418,12.636-10.846,25.268-16.338,37.872c-1.599,3.67-4.576,5.635-8.561,5.638c-4.097,0.002-6.946-2.217-8.589-5.872
		c-2.345-5.217-4.561-10.492-6.824-15.745c-3.052-7.083-6.095-14.171-9.148-21.254c-1.384-3.209-0.147-5.088,3.372-5.095
		c1.947-0.003,3.894-0.015,5.841,0.004c2.158,0.021,3.203,0.928,3.532,3.013c0.305,1.934,1.413,3.003,3.049,2.942
		c1.577-0.058,2.577-1.124,2.822-3.005c0.235-1.804,1.318-2.886,3.114-2.941c4.116-0.125,6.161-0.256,5.849,5.416
		c-0.107,1.941-0.032,3.893-0.013,5.84c0.023,2.364,1.099,3.636,3.012,3.611c1.841-0.025,2.871-1.282,2.883-3.557
		c0.013-2.578-0.015-5.157,0.009-7.735c0.022-2.423,1.174-3.56,3.591-3.584C274.523,104.182,276.049,104.195,277.575,104.196z"/>
	<path style="fill:#A2C621;" d="M260.568,74.448c9.425,0.008,17.385,6.415,19.761,15.967c0.279,1.123,0.478,1.944,1.93,2.118
		c1.416,0.17,2.165,1.612,2.018,3.117c-0.136,1.393-1.117,2.386-2.542,2.575c-0.104,0.014-0.209,0.023-0.314,0.031
		c-4.934,0.38-5.378,0.033-6.179-4.829c-1.187-7.205-6.516-12.409-13.258-12.947c-7.034-0.561-13.223,3.419-15.479,9.968
		c-0.517,1.499-0.763,3.048-0.823,4.635c-0.077,2.044-1.129,3.106-3.133,3.176c-0.998,0.035-2.002,0.043-2.998-0.022
		c-1.622-0.106-2.669-1.147-2.783-2.671c-0.117-1.57,0.701-2.879,2.263-3.105c1.128-0.163,1.377-0.725,1.602-1.668
		C242.977,80.949,250.941,74.44,260.568,74.448z"/>
</g>
<g id="rwd-bowl" style="opacity:0.5;">
	<path style="fill:#A2C621;" d="M124.116,151.191c-6.536,0-13.072-0.027-19.607,0.027c-1.055,0.009-1.326-0.26-1.319-1.309
		c0.015-2.075-0.032-4.128,1.538-5.761c1.096-1.14,2.373-1.943,4.025-1.943c10.362,0,20.724-0.045,31.085,0.033
		c3.001,0.023,5.374,2.672,5.437,5.666c0.069,3.286,0.069,3.286-3.231,3.286C136.067,151.191,130.092,151.191,124.116,151.191z"/>
	<path style="fill:#A2C621;" d="M160.406,114.879c-0.066-1.319-0.911-2.348-2.383-2.733c-0.664-0.174-0.868-0.382-0.8-1.132
		c0.877-9.711-5.258-17.777-14.88-19.535c-0.923-0.169-1.284-0.553-1.642-1.366c-2.983-6.772-8.162-10.828-15.551-11.214
		c-7.209-0.377-12.827,2.899-16.316,9.268c-1.134,2.069-2.281,3.243-4.714,3.872c-8.425,2.179-13.705,10.167-12.877,18.865
		c0.06,0.63,0.101,1.022-0.662,1.234c-1.583,0.44-2.428,1.462-2.479,2.784c-0.05,1.293,0.799,2.478,2.298,2.96
		c0.611,0.196,0.751,0.44,0.786,1.049c0.568,9.77,8.347,17.119,18.08,17.118c4.951-0.001,9.902,0,14.853,0
		c5.044,0,10.089,0,15.133,0c9.629-0.001,17.41-7.241,18.053-16.835c0.049-0.734,0.164-1.136,0.977-1.382
		C159.688,117.406,160.47,116.171,160.406,114.879z M151.125,111.088c-0.211,1.013-0.814,0.939-1.524,0.939
		c-8.456-0.005-16.912-0.003-25.369-0.003c-8.363,0-16.726-0.024-25.088,0.026c-1.238,0.007-1.711-0.336-1.832-1.61
		c-0.482-5.108,1.369-9.12,5.72-11.736c4.354-2.617,8.786-2.295,13.046,0.461c0.894,0.579,1.752,1.318,2.909,1.208
		c1.321-0.125,2.294-0.823,2.674-2.116c0.396-1.348-0.066-2.5-1.144-3.363c-1.726-1.38-3.667-2.406-5.77-3.043
		c-1.002-0.304-1.03-0.591-0.535-1.413c3.415-5.675,11.722-7.282,17.042-3.295c2.325,1.743,3.87,3.973,4.623,6.783
		c0.69,2.575,1.381,3.078,4.032,3.106C146.953,97.109,152.563,104.175,151.125,111.088z"/>
</g>
<path id="rwd-pointer" style="fill:none;stroke:#A2C621;stroke-width:4;stroke-linecap:round;stroke-miterlimit:10;" d="
	M278.881,46.454l-18.01,14.591c-0.158,0.128-0.385,0.128-0.543,0.001L242.23,46.45"/>
</svg>
