<?xml version="1.0" encoding="utf-8"?>
<!-- Generator: Adobe Illustrator 25.2.3, SVG Export Plug-In . SVG Version: 6.00 Build 0)  -->
<svg version="1.1" id="b3ef299c-05fc-43e4-bde4-52f2d97b3458"
	 xmlns="http://www.w3.org/2000/svg" xmlns:xlink="http://www.w3.org/1999/xlink" x="0px" y="0px" viewBox="0 0 443.4 167.4"
	 style="enable-background:new 0 0 443.4 167.4;" xml:space="preserve">
<style type="text/css">
	.st0{opacity:0.5;fill:#A2C621;enable-background:new    ;}
	.st1{opacity:0.5;}
	.st2{fill:#A2C621;}
	.st3{fill:none;stroke:#A2C621;stroke-width:4;stroke-linecap:round;stroke-miterlimit:10;}
</style>
<path id="a17288d2-6430-4294-be53-d5ebf1c10719" data-name="rwd-coffee" class="st0" d="M383.4,80.9c-0.4-0.5-0.6-1.1-0.4-1.7c1.7-5.7-1.5-10.4-7.4-10.8
	c-1.2-0.1-1.4-0.5-1.4-1.6c0.1-2.2,0-4.3,0-6.5c0-1.1,0-2.3-1.1-2.9c-1-0.5-2.3-0.3-3.1,0.5c-2.9,2-6.4,2.9-9.9,2.7
	c-3.3-0.1-6.6-0.1-10,0c-3.8,0-7,2.5-7.9,6.2c-0.3,1.2-0.7,1.5-1.9,1.6c-4.4,0.2-7.8,4-7.6,8.4c0,0.8,0.2,1.5,0.4,2.2
	c0.3,0.6,0.2,1.4-0.3,1.9c-0.8,0.8-0.8,2.2,0,3c0.2,0.2,0.5,0.4,0.8,0.5c0.8,0.3,1.3,1,1.3,1.8c0.6,5,1.2,10,1.9,14.9
	c1.2,9.5,2.4,19,3.6,28.5c0.3,3.2,3.1,5.7,6.4,5.5c3.8,0,7.6,0,11.4,0h10.7c4.3,0,6.6-2,7.1-6.2c1.8-14.2,3.6-28.5,5.4-42.7
	c0-0.8,0.4-1.4,1.2-1.7c1.1-0.4,1.7-1.6,1.3-2.8C383.7,81.3,383.6,81.1,383.4,80.9z M376.6,86.1c-1.8,13.9-3.5,27.7-5.2,41.6
	c-0.3,2.3-0.5,2.5-2.9,2.5c-3.4,0-6.9,0-10.3,0c-3.6,0-7.2,0-10.9,0c-1.5,0-2.2-0.5-2.4-2.1c-1.3-10.4-2.6-20.8-3.9-31.2
	c-0.5-3.6-0.9-7.2-1.4-10.8c-0.1-1.1-0.1-1.7,1.3-1.7c1.2,0.1,2.2-0.7,2.3-1.9c0-0.1,0-0.2,0-0.4c0-1.2-0.9-2.2-2.1-2.3c0,0,0,0,0,0
	c-2.5-0.4-3.9-1.8-3.7-3.8c0.1-2,1.7-3.2,4.3-3.2h5.4c1.5,0,2.7-0.5,2.9-2.2c0.2-1.2-0.7-2.3-1.9-2.5c-0.1,0-0.3,0-0.4,0
	c-1.1-0.1-1-0.6-0.5-1.2c0.6-1.1,1.7-1.8,3-1.8c3.8-0.1,7.6-0.1,11.4-0.1c0.7,0,1.4,0.3,1.9,0.8c0.5,0.5,1,1.1,0.9,1.8
	s-1.1,0.3-1.7,0.4c-0.2,0-0.5,0-0.7,0c-1.5,0.2-2.6,1.2-2.5,2.4c0,1.3,1.1,2.3,2.4,2.3c0.1,0,0.1,0,0.2,0c2.6,0,5.2,0,7.9,0
	c2.3,0,3.8,1.3,3.8,3.4c0,2.1-1.4,3.5-3.8,3.5c-6.4,0-12.7,0-19.1,0c-0.6,0-1.2,0-1.7,0.1c-1.2,0.1-2,1.1-1.9,2.3
	c0,1.2,0.9,2.2,2.1,2.2c0.5,0,1,0,1.6,0c8.2,0,16.3,0,24.5,0C376.4,84.5,376.8,84.8,376.6,86.1z"/>
<g id="e8561f14-48dc-41e3-8395-2b7db3c1e8c9" data-name="rwd-bowl" class="st1">
	<path class="st2" d="M85.3,133.8c-6.5,0-13.1,0-19.6,0c-1.1,0-1.3-0.3-1.3-1.3c0-2.1,0-4.1,1.5-5.8c1-1.2,2.5-1.9,4-1.9
		c10.4,0,20.7-0.1,31.1,0c3,0.1,5.4,2.6,5.4,5.7c0.1,3.3,0.1,3.3-3.2,3.3L85.3,133.8z"/>
	<path class="st2" d="M121.5,97.5c-0.1-1.4-1.1-2.5-2.4-2.7c-0.7-0.2-0.9-0.4-0.8-1.1c1.1-9.4-5.5-18.1-14.9-19.5
		c-0.8-0.1-1.4-0.6-1.6-1.4c-3-6.8-8.2-10.8-15.6-11.2c-7.2-0.4-12.8,2.9-16.3,9.3c-0.9,1.9-2.6,3.4-4.7,3.8
		c-8.4,2.2-13.9,10.3-12.9,18.9c0.1,0.6,0.1,1-0.7,1.2c-1.4,0.2-2.4,1.4-2.5,2.8c0,1.4,0.9,2.7,2.3,3c0.5,0.1,0.8,0.5,0.8,1.1
		c0.4,9.6,8.4,17.2,18.1,17.1h30c9.5,0.1,17.5-7.3,18-16.8c0-0.7,0.2-1.1,1-1.4C120.8,100.1,121.6,98.9,121.5,97.5z M112.3,93.7
		c-0.2,1-0.8,0.9-1.5,0.9H85.4c-8.4,0-16.7,0-25.1,0c-1.2,0-1.7-0.3-1.8-1.6C58,88,59.8,84,64.2,81.3s8.8-2.3,13,0.5
		c0.9,0.6,1.8,1.3,2.9,1.2c1.3,0,2.3-0.9,2.7-2.1c0.4-1.3-0.1-2.6-1.1-3.4c-1.7-1.4-3.7-2.4-5.8-3c-1-0.3-1-0.6-0.5-1.4
		c3.6-5.6,11-7.2,16.6-3.6c0.1,0.1,0.3,0.2,0.4,0.3c2.3,1.7,3.9,4.1,4.6,6.8c0.7,2.6,1.4,3.1,4,3.1
		C108.1,79.8,113.7,86.8,112.3,93.7L112.3,93.7z"/>
</g>
<g id="a12b1b06-5637-4b35-b97f-e4fa1f1f2d44" data-name="rwd-cone">
	<path class="st2" d="M238.7,86.9c1.6,0,3.3,0,4.9,0c2.6,0.1,3.9,2.1,2.9,4.4c-5.4,12.7-10.9,25.3-16.3,37.9
		c-1.4,3.5-4.8,5.8-8.6,5.6c-4.1,0-6.9-2.2-8.6-5.9c-2.4-5.2-4.6-10.5-6.8-15.8c-3.1-7.1-6.1-14.2-9.1-21.2
		c-1.4-3.2-0.1-5.1,3.4-5.1c1.9,0,3.9,0,5.8,0c2.2,0,3.2,0.9,3.5,3s1.4,3,3,2.9s2.6-1.1,2.8-3c0.1-1.7,1.5-3,3.1-2.9
		c4.1-0.1,6.2-0.3,5.9,5.4c-0.1,1.9,0,3.9,0,5.8c0,2.4,1.1,3.6,3,3.6s2.9-1.3,2.9-3.6c0-2.6,0-5.2,0-7.7c0-2.4,1.2-3.6,3.6-3.6
		C235.7,86.8,237.2,86.9,238.7,86.9z"/>
	<path class="st2" d="M221.7,57.1c9.4,0,17.4,6.4,19.8,16c0.3,1.1,0.5,1.9,1.9,2.1c1.4,0.2,2.2,1.6,2,3.1c-0.1,1.4-1.2,2.5-2.6,2.6
		h-0.3c-4.9,0.4-5.4,0-6.2-4.8c-1.2-7.2-6.5-12.4-13.3-13c-6.9-0.7-13.3,3.5-15.5,10c-0.5,1.5-0.8,3.1-0.8,4.6c0.1,1.6-1,3-2.6,3.2
		c-0.2,0-0.3,0-0.5,0c-1,0-2,0-3,0c-1.5,0-2.7-1.2-2.8-2.7c-0.2-1.5,0.8-2.9,2.2-3.1c0,0,0,0,0,0c1.1-0.2,1.4-0.7,1.6-1.7
		C204.1,63.7,212.1,57.1,221.7,57.1z"/>
</g>
<path id="b87878b9-4a17-4f20-bb8f-32fe3b3ffa4b" data-name="rwd-pointer" class="st3" d="M240,29.1l-18,14.6c-0.2,0.1-0.4,0.1-0.5,0l-18.1-14.6"/>
</svg>
