<svg id="Ebene_1" data-name="Ebene 1" xmlns="http://www.w3.org/2000/svg" viewBox="0 0 507.27 301.62"><defs><style>.cls-1,.cls-3{fill:#fff;}.cls-1{stroke:#99c31d;stroke-miterlimit:10;stroke-width:5px;}.cls-2{fill:#cdcccc;}.cls-4{fill:#a2c621;}.cls-5{opacity:0.5;}.cls-6{fill:#99c31d;}</style></defs><rect class="cls-1" x="2.5" y="2.91" width="143.87" height="129.51"/><polygon class="cls-2" points="88.68 46.12 70.74 74.61 53.07 60.65 17.47 110.21 131.4 110.21 88.68 46.12"/><circle class="cls-2" cx="31.71" cy="39" r="14.24"/><path class="cls-3" d="M162.89,196.2a30.88,30.88,0,1,1,19.3-55l1.23,1c2.19-1.53,4.54-3.07,7.15-4.7l4.36-2.71,4.58,10.53-2.45,2.13c-2,1.75-3.9,3.55-5.72,5.48l.93,2.89a30.86,30.86,0,0,1-29.38,40.37Z" transform="translate(-29.83 -49.1)"/><path class="cls-4" d="M149.61,160.72l3.81-3.52a73.78,73.78,0,0,1,12.29,7.37c9.42-10.68,15.64-16.1,27.2-23.3l1.24,2.85c-9.53,8.32-16.52,17.59-26.57,35.63A192,192,0,0,0,149.61,160.72Zm34.65,1.34a21.94,21.94,0,0,1,.27,3.26,21.71,21.71,0,1,1-9-17.5c1.26-1.07,2.53-2.12,3.85-3.13a26.42,26.42,0,1,0,8.64,12.51C186.79,158.72,185.53,160.33,184.26,162.06Z" transform="translate(-29.83 -49.1)"/><g class="cls-5"><rect class="cls-3" x="181.7" y="169.61" width="143.87" height="129.51"/><path class="cls-6" d="M357.9,350.72H209V216.21H357.9Zm-143.87-5H352.9V221.21H214Z" transform="translate(-29.83 -49.1)"/></g><polygon class="cls-2" points="267.88 212.82 249.94 241.3 232.28 227.35 196.67 276.91 310.61 276.91 267.88 212.82"/><circle class="cls-2" cx="210.91" cy="205.7" r="14.24"/><g class="cls-5"><rect class="cls-3" x="360.9" y="169.61" width="143.87" height="129.51"/><path class="cls-6" d="M537.1,350.72H388.23V216.21H537.1Zm-143.87-5H532.1V221.21H393.23Z" transform="translate(-29.83 -49.1)"/></g><polygon class="cls-2" points="447.08 212.82 429.14 241.3 411.48 227.35 375.87 276.91 489.81 276.91 447.08 212.82"/><circle class="cls-2" cx="390.11" cy="205.7" r="14.24"/><g class="cls-5"><rect class="cls-3" x="2.5" y="169.61" width="143.87" height="129.51"/><path class="cls-6" d="M178.7,350.72H29.83V216.21H178.7Zm-143.87-5H173.7V221.21H34.83Z" transform="translate(-29.83 -49.1)"/></g><polygon class="cls-2" points="88.68 212.82 70.74 241.3 53.07 227.35 17.47 276.91 131.4 276.91 88.68 212.82"/><circle class="cls-2" cx="31.71" cy="205.7" r="14.24"/><g class="cls-5"><rect class="cls-3" x="181.7" y="2.5" width="143.87" height="129.51"/><path class="cls-6" d="M357.9,183.61H209V49.1H357.9Zm-143.87-5H352.9V54.1H214Z" transform="translate(-29.83 -49.1)"/></g><polygon class="cls-2" points="267.88 45.71 249.94 74.19 232.28 60.24 196.67 109.8 310.61 109.8 267.88 45.71"/><circle class="cls-2" cx="210.91" cy="38.59" r="14.24"/><g class="cls-5"><rect class="cls-3" x="360.9" y="2.5" width="143.87" height="129.51"/><path class="cls-6" d="M537.1,183.61H388.23V49.1H537.1Zm-143.87-5H532.1V54.1H393.23Z" transform="translate(-29.83 -49.1)"/></g><polygon class="cls-2" points="447.08 45.71 429.14 74.19 411.48 60.24 375.87 109.8 489.81 109.8 447.08 45.71"/><circle class="cls-2" cx="390.11" cy="38.59" r="14.24"/></svg>