<?xml version="1.0" encoding="utf-8"?>
<!-- Generator: Adobe Illustrator 25.2.3, SVG Export Plug-In . SVG Version: 6.00 Build 0)  -->
<svg version="1.1" id="b3ef299c-05fc-43e4-bde4-52f2d97b3458"
	 xmlns="http://www.w3.org/2000/svg" xmlns:xlink="http://www.w3.org/1999/xlink" x="0px" y="0px" viewBox="0 0 443.374 141.399"
	 style="enable-background:new 0 0 443.374 141.399;" xml:space="preserve">
<path id="a17288d2-6430-4294-be53-d5ebf1c10719" data-name="rwd-coffee" style="opacity:0.5;fill:#A2C621;enable-background:new    ;" d="M383.441,67.893
	c-0.412-0.475-0.552-1.128-0.37-1.73c1.67-5.68-1.52-10.39-7.39-10.85c-1.18-0.09-1.44-0.48-1.4-1.56c0.08-2.16,0-4.32,0-6.48
	c0-1.14,0-2.29-1.15-2.89c-1.037-0.473-2.255-0.293-3.11,0.46c-2.909,1.968-6.383,2.927-9.89,2.73c-3.32-0.09-6.65-0.09-10,0
	c-3.759-0.036-7.046,2.526-7.93,6.18c-0.29,1.23-0.74,1.48-1.9,1.57c-4.413,0.213-7.818,3.963-7.605,8.376
	c0.037,0.765,0.183,1.521,0.435,2.244c0.29,0.623,0.188,1.359-0.26,1.88c-0.819,0.829-0.811,2.165,0.017,2.984
	c0.219,0.216,0.483,0.382,0.773,0.486c0.771,0.256,1.284,0.988,1.26,1.8c0.64,5,1.25,10,1.87,14.92c1.2,9.48,2.35,19,3.6,28.45
	c0.326,3.241,3.137,5.656,6.39,5.49c3.8,0,7.59,0,11.38,0h10.68c4.3,0,6.62-2,7.14-6.25c1.78-14.233,3.563-28.46,5.35-42.68
	c-0.036-0.76,0.444-1.45,1.17-1.68c1.131-0.396,1.727-1.634,1.332-2.765C383.745,68.328,383.612,68.095,383.441,67.893z
	 M376.621,73.083c-1.79,13.87-3.5,27.74-5.24,41.62c-0.3,2.33-0.48,2.49-2.86,2.49c-3.44,0-6.88,0-10.32,0c-3.62,0-7.24,0-10.85,0
	c-1.49,0-2.23-0.52-2.42-2.06c-1.28-10.41-2.61-20.81-3.93-31.21c-0.46-3.59-0.89-7.17-1.4-10.75c-0.15-1.09-0.13-1.73,1.29-1.69
	c1.176,0.114,2.222-0.748,2.336-1.924c0.012-0.122,0.013-0.244,0.004-0.366c0.039-1.225-0.923-2.25-2.149-2.289
	c-0.01,0-0.021-0.001-0.031-0.001c-2.52-0.37-3.85-1.77-3.7-3.77s1.74-3.16,4.27-3.18h5.42c1.51,0,2.73-0.53,2.86-2.17
	c0.173-1.203-0.661-2.318-1.863-2.491c-0.148-0.021-0.297-0.028-0.447-0.019c-1.08-0.08-0.95-0.58-0.55-1.23
	c0.601-1.099,1.748-1.787,3-1.8c3.79-0.06,7.59-0.06,11.38-0.08c0.71-0.005,1.389,0.289,1.87,0.81c0.5,0.51,1,1.14,0.85,1.83
	s-1.1,0.29-1.67,0.42c-0.23,0.015-0.46,0.015-0.69,0c-1.52,0.17-2.62,1.17-2.49,2.42c0.043,1.308,1.139,2.333,2.447,2.29
	c0.051-0.002,0.102-0.005,0.153-0.01c2.63,0,5.25,0,7.87,0c2.32,0,3.76,1.34,3.78,3.43s-1.43,3.48-3.75,3.49
	c-6.35,0-12.71,0-19.07,0c-0.581-0.03-1.163-0.01-1.74,0.06c-1.17,0.116-2.033,1.147-1.94,2.32c-0.023,1.178,0.894,2.161,2.07,2.22
	c0.523,0.03,1.047,0.03,1.57,0c8.16,0,16.33,0,24.5,0C376.391,71.533,376.791,71.763,376.621,73.083z"/>
<g id="e8561f14-48dc-41e3-8395-2b7db3c1e8c9" data-name="rwd-bowl" style="opacity:0.5;">
	<path style="fill:#A2C621;" d="M85.251,120.843c-6.54,0-13.08,0-19.61,0c-1.06,0-1.33-0.26-1.32-1.31c0-2.08,0-4.13,1.54-5.76
		c0.999-1.184,2.452-1.889,4-1.94c10.36,0,20.73-0.05,31.09,0c3.029,0.139,5.417,2.628,5.43,5.66c0.07,3.29,0.07,3.29-3.23,3.29
		L85.251,120.843z"/>
	<path style="fill:#A2C621;" d="M121.541,84.533c-0.07-1.353-1.058-2.482-2.39-2.73c-0.66-0.18-0.86-0.39-0.8-1.14
		c1.085-9.448-5.483-18.068-14.88-19.53c-0.772-0.087-1.417-0.626-1.64-1.37c-3-6.77-8.16-10.83-15.55-11.21
		c-7.21-0.38-12.83,2.9-16.32,9.27c-0.879,1.947-2.624,3.367-4.71,3.83c-8.391,2.227-13.876,10.276-12.88,18.9
		c0.06,0.63,0.1,1-0.66,1.24c-1.372,0.239-2.399,1.39-2.48,2.78c-0.039,1.418,0.92,2.67,2.3,3c0.501,0.082,0.846,0.547,0.78,1.05
		c0.441,9.641,8.43,17.205,18.08,17.12h30c9.542,0.092,17.48-7.314,18.05-16.84c0-0.73,0.17-1.13,1-1.38
		C120.757,87.145,121.632,85.9,121.541,84.533z M112.251,80.743c-0.21,1-0.81,0.94-1.52,0.94h-25.37c-8.36,0-16.72,0-25.09,0
		c-1.23,0-1.71-0.34-1.83-1.61c-0.48-5.11,1.37-9.12,5.72-11.74s8.79-2.29,13,0.47c0.89,0.57,1.75,1.31,2.91,1.2
		c1.258-0.036,2.344-0.894,2.67-2.11c0.399-1.252-0.063-2.617-1.14-3.37c-1.716-1.356-3.674-2.374-5.77-3c-1-0.3-1-0.59-0.54-1.41
		c3.593-5.569,11.02-7.17,16.589-3.577c0.139,0.09,0.276,0.182,0.411,0.277c2.28,1.662,3.915,4.061,4.63,6.79
		c0.69,2.57,1.38,3.07,4,3.1C108.131,66.763,113.691,73.823,112.251,80.743L112.251,80.743z"/>
</g>
<g id="a12b1b06-5637-4b35-b97f-e4fa1f1f2d44" data-name="rwd-cone">
	<path style="fill:#A2C621;" d="M238.711,73.853c1.63,0,3.26,0,4.89,0c2.57,0.08,3.93,2.1,2.93,4.45
		c-5.42,12.667-10.867,25.29-16.34,37.87c-1.358,3.513-4.796,5.778-8.56,5.64c-4.1,0-6.95-2.22-8.59-5.87
		c-2.35-5.22-4.56-10.49-6.83-15.75c-3.053-7.08-6.1-14.163-9.14-21.25c-1.39-3.21-0.15-5.09,3.37-5.09c1.95,0,3.89,0,5.84,0
		c2.16,0,3.2,0.93,3.53,3s1.41,3,3,2.94s2.58-1.12,2.82-3c0.06-1.669,1.451-2.979,3.12-2.94c4.11-0.13,6.16-0.26,5.85,5.41
		c-0.11,1.95,0,3.9,0,5.84c0,2.37,1.1,3.64,3,3.61s2.87-1.28,2.88-3.55c0-2.58,0-5.16,0-7.74c0-2.42,1.17-3.56,3.59-3.58
		C235.651,73.833,237.181,73.853,238.711,73.853z"/>
	<path style="fill:#A2C621;" d="M221.701,44.103c9.42,0,17.38,6.41,19.76,16c0.28,1.12,0.48,1.94,1.93,2.11s2.16,1.62,2,3.12
		c-0.111,1.365-1.186,2.453-2.55,2.58h-0.31c-4.93,0.38-5.38,0-6.18-4.83c-1.19-7.21-6.52-12.41-13.26-13
		c-6.858-0.674-13.275,3.471-15.48,10c-0.497,1.495-0.773,3.055-0.82,4.63c0.148,1.606-1.033,3.028-2.639,3.176
		c-0.163,0.015-0.327,0.016-0.491,0.004c-1,0-2,0-3,0c-1.491-0.004-2.716-1.18-2.78-2.67c-0.244-1.471,0.751-2.861,2.222-3.105
		c0.009-0.002,0.019-0.003,0.028-0.005c1.13-0.16,1.38-0.72,1.6-1.67C204.131,50.653,212.071,44.093,221.701,44.103z"/>
</g>
<path id="b87878b9-4a17-4f20-bb8f-32fe3b3ffa4b" data-name="rwd-pointer" style="fill:none;stroke:#A2C621;stroke-width:4;stroke-linecap:round;stroke-miterlimit:10;" d="
	M240.007,16.103l-18,14.6c-0.16,0.12-0.38,0.12-0.54,0l-18.1-14.6"/>
</svg>
