<svg id="Ebene_1" data-name="Ebene 1" xmlns="http://www.w3.org/2000/svg" xmlns:xlink="http://www.w3.org/1999/xlink"
    viewBox="0 0 490.18 260.22">
    <defs>
        <style>
            .cls-1,
            .cls-2,
            .cls-7 {
                fill: none;
            }

            .cls-2 {
                stroke: #010101;
                stroke-width: 7px;
            }

            .cls-2,
            .cls-7 {
                stroke-miterlimit: 10;
            }

            .cls-3 {
                fill: #010101;
            }

            .cls-4 {
                clip-path: url(#clip-path);
            }

            .cls-5 {
                fill: #fff;
            }

            .cls-6 {
                fill: #1d1d1b;
            }

            .cls-7 {
                stroke: #1d1d1b;
                stroke-width: 4px;
            }

            .cls-8 {
                fill: #010202;
            }

            .cls-9 {
                clip-path: url(#clip-path-2);
            }

            .cls-10,
            .cls-13 {
                opacity: 0.8;
            }

            .cls-11,
            .cls-12,
            .cls-13,
            .cls-14,
            .cls-15,
            .cls-16 {
                fill: #cd151b;
            }

            .cls-12 {
                opacity: 0.9;
            }

            .cls-12,
            .cls-13,
            .cls-14,
            .cls-15,
            .cls-16 {
                isolation: isolate;
            }

            .cls-14 {
                opacity: 0.7;
            }

            .cls-15 {
                opacity: 0.6;
            }

            .cls-16 {
                opacity: 0.5;
            }
        </style>
        <clipPath id="clip-path" transform="translate(-40.48 -75.67)">
            <rect class="cls-1" x="429.38" y="234.93" width="97.07" height="97.07" />
        </clipPath>
        <clipPath id="clip-path-2" transform="translate(-40.48 -75.67)">
            <path id="SVGID" class="cls-1"
                d="M325.18,258.12a10,10,0,0,1-10,10H251.73a10,10,0,0,1-10-10V98a10,10,0,0,1,10-10H257a1.39,1.39,0,0,1,1.39,1.39h0v.92a5,5,0,0,0,5,5H303.5a5,5,0,0,0,5-5h0v-.92A1.39,1.39,0,0,1,309.9,88h5.35a10,10,0,0,1,10,10h0Z" />
        </clipPath>
    </defs>
    <title>small_qrscan_explanation</title>
    <line class="cls-2" x1="135.11" y1="207.8" x2="350.86" y2="207.8" />
    <polyline class="cls-2" points="323.39 235.27 350.86 207.8 323.39 180.32" />
    <path class="cls-3"
        d="M83,259.2H76.88V247.06H83v6.07H95.08v6.07H89v6.06H83ZM95.08,332v-6.07H89V332ZM89,241v-6.07H76.88V241H83v6.06H89Zm48.53-6.07v36.4h-6.07v-6.07H107.22V234.93Zm-6.07,24.27V241h-18.2v18.2ZM46.55,271.33H40.48v6.07H52.61v-6.07Zm0,18.2h6.06v6.07h6.07V277.4H52.61v6.06H40.48V295.6h6.07Zm30.33,6.07v12.13H83V295.6Zm24.27-60.67H95.08v18.2h6.07Zm0,30.33V259.2H95.08v6.06Zm18.2-12.13h6.07v-6.07h-6.07Zm-60.67-6.07H52.61v6.07h6.07Zm12.13-12.13v30.33H40.48V234.93ZM64.75,241H46.55v18.2h18.2Zm54.6,30.33v6.07h-6.07v-6.07H101.15v6.07H95.08v-6.07H76.88v-6.07H70.81v6.07H64.75v6.07h6.06v12.13h6.07v-6.07H83V295.6H89V283.46h18.2v6.07H95.08v6.07h12.14v6.07h6.06V283.46h6.07v6.07h6.07v12.14h6.06V295.6h6.07v-6.07h-6.07v-6.07h-6.06V277.4h6.06v-6.07ZM52.61,319.87h6.07V313.8H52.61Zm-12.13-18.2H70.81V332H40.48Zm6.07,24.26h18.2v-18.2H46.55Zm72.8-18.2v-6.06h-6.07v6.06Zm0,6.07h-6.07v6.07h-6.06V313.8h-6.07v-6.07h6.07v-6.06H95.08V295.6H89v12.13H83v6.07H76.88V332H83v-6.07H89v-6.06h12.13V332h6.07v-6.07h6.06V332h12.14v-6.07h6.06v-6.06H119.35Zm-54.6-18.2h6.06v-6.07H64.75Zm60.67,12.13v6.07h6.06v6.07h6.07v-18.2h-6.07v6.06ZM137.55,332v-6.07h-6.07V332Zm0-48.54V277.4h-6.07v6.06Z"
        transform="translate(-40.48 -75.67)" />
    <g class="cls-4">
        <path class="cls-3"
            d="M471.85,259.2h-6.07V247.06h6.07v6.07H484v6.07h-6.07v6.06h-6.06Zm6.06-18.2v-6.07H465.78V241h6.07v6.06h6.06Zm48.54-6.07v36.4h-6.07v-6.07H496.11V234.93Zm-6.07,24.27V241h-18.2v18.2Zm-84.94,12.13h-6.06v6.07h12.13v-6.07Zm0,18.2h6.07v6.07h6.07V277.4h-6.07v6.06H429.38V295.6h6.06Zm30.34,6.07v12.13h12.13V295.6Zm24.27-60.67H484v18.2h6.07Zm0,30.33V259.2H484v6.06Zm18.2-12.13h6.06v-6.07h-6.06Zm-60.67-6.07h-6.07v6.07h6.07Zm12.13-12.13v30.33H429.38V234.93ZM453.65,241H435.44v18.2h18.21Zm66.73,42.46h-6.07V277.4h6.07v-6.07H508.25v6.07h-6.07v-6.07H490.05v6.07H484v-6.07h-18.2v-6.07h-6.07v6.07h-6.06v6.07h6.06v12.13h6.07v-6.07h6.07V295.6h6.06V283.46h18.2v6.07H484v6.07h12.13v6.07h6.07V283.46h6.07v6.07h6.06v12.14h6.07Zm-78.87,36.41h6.07V313.8h-6.07Zm-12.13-18.2h30.33V332H429.38Zm6.06,24.26h18.21v-18.2H435.44Zm72.81-18.2v-6.06h-6.07v6.06ZM490.05,332V307.73h6.06v-6.06H484V295.6h-6.07v12.13h-6.06v6.07h-6.07V332h6.07v-6.07h6.06V332Zm-36.4-36.4h6.06v-6.07h-6.06Zm72.8-12.14V277.4h-6.07v6.06Z"
            transform="translate(-40.48 -75.67)" />
        <path class="cls-5" d="M529.89,307.3v28.13H501.76a28.14,28.14,0,1,1,28.13-28.13Z"
            transform="translate(-40.48 -75.67)" />
        <path class="cls-6"
            d="M519.09,301c-.27-6.09-3.67-9.49-9.78-9.78-1.78-.07-2.35-.09-6.93-.09s-5.12,0-6.91.11c-6.11.27-9.49,3.65-9.78,9.76-.09,1.78-.11,2.35-.11,6.93s0,5.12.11,6.91c.29,6.11,3.67,9.51,9.78,9.78,1.79.09,2.35.11,6.91.11s5.15,0,6.93-.11c6.11-.27,9.49-3.67,9.78-9.78.09-1.79.09-2.35.09-6.91S519.18,302.79,519.09,301Zm-3,13.71c-.21,4.52-2.33,6.68-6.89,6.89-1.78.08-2.31.1-6.8.1s-5,0-6.78-.1c-4.56-.21-6.68-2.37-6.89-6.89-.08-1.76-.08-2.31-.08-6.78s0-5,.08-6.8c.21-4.52,2.33-6.68,6.89-6.89,1.78-.06,2.31-.09,6.78-.09s5,0,6.8.09c4.56.21,6.68,2.37,6.89,6.91.06,1.76.09,2.29.09,6.78S516.13,313,516.07,314.72Z"
            transform="translate(-40.48 -75.67)" />
        <path class="cls-6" d="M513.38,299a2,2,0,1,1-2-2A2,2,0,0,1,513.38,299Z" transform="translate(-40.48 -75.67)" />
        <path class="cls-6"
            d="M502.38,299.31a8.62,8.62,0,1,0,8.63,8.63A8.63,8.63,0,0,0,502.38,299.31Zm0,14.21a5.6,5.6,0,1,1,5.61-5.58A5.57,5.57,0,0,1,502.38,313.52Z"
            transform="translate(-40.48 -75.67)" />
        <path class="cls-7" d="M492.86,334a28.14,28.14,0,1,1,35.88-34.68" transform="translate(-40.48 -75.67)" />
    </g>
    <path class="cls-8"
        d="M281,166.2h-2.5v-5H281v2.49h5v2.5h-2.5v2.5H281Zm5,30v-2.49h-2.5v2.49Zm-2.5-37.46v-2.5h-5v2.5H281v2.5h2.49Zm20-2.5v15H301v-2.5H291V156.21Zm-2.49,10v-7.5h-7.51v7.5Zm-35,5h-2.49v2.49h5V171.2Zm0,7.5h2.53v2.5H271v-7.5h-2.49v2.5h-5v5H266Zm12.49,2.5v5H281v-5Zm10-25H286v7.5h2.5Zm0,12.48v-2.5H286v2.5Zm7.5-5h2.5v-2.5H296Zm-25-2.5h-2.48v2.5H271Zm5-5v12.48H263.49v-12.5Zm-2.5,2.49H266v7.51h7.5ZM296,171.21v2.49h-2.49v-2.49h-5v2.49H286v-2.49h-7.5v-2.5H276v2.5h-2.5v2.49H276v5h2.5v-2.5H281v5h2.49v-5H291v2.5h-5v2.5h5v2.5h2.5v-7.5H296v2.5h2.5v5H301v-2.5h2.5V178.7H301v-2.5h-2.5v-2.5H301v-2.49Zm-27.45,20H271v-2.5h-2.49Zm-5-7.5H276v12.48H263.49Zm2.5,10h7.5v-7.5H266Zm30-7.5v-2.49h-2.5v2.49Zm0,2.5h-2.5v2.5H291v-2.5h-2.5v-2.5H291v-2.49h-5v-2.5h-2.5v5H281v2.5h-2.5v7.5H281v-2.5h2.49v-2.49h5v5H291v-2.5h2.5v2.5h5v-2.5H301v-2.49h-5Zm-22.48-7.5H276v-2.5h-2.53Zm25,5v2.5H301v2.5h2.5v-7.5H301v2.49Zm5,10v-2.49H301v2.49Zm0-20v-2.5H301v2.5Zm-5-25h10v10h5v-15h-15Zm-40,10v-10h10v-5h-15v15Zm10,40h-10v-10h-5v15h15Zm39.95-10v10h-10v5h15v-15Z"
        transform="translate(-40.48 -75.67)" />
    <path class="cls-3"
        d="M316,85H250.93a12.37,12.37,0,0,0-12.36,12.37h0v161.5A12.38,12.38,0,0,0,251,271.2h65a12.38,12.38,0,0,0,12.38-12.38h0V97.3A12.37,12.37,0,0,0,316,85Zm9.19,173.17a10,10,0,0,1-10,10H251.73a10,10,0,0,1-10-10V98a10,10,0,0,1,10-10H257a1.39,1.39,0,0,1,1.39,1.39h0v.92a5,5,0,0,0,5,5H303.5a5,5,0,0,0,5-5h0v-.92A1.39,1.39,0,0,1,309.9,88h5.35a10,10,0,0,1,10,10h0Z"
        transform="translate(-40.48 -75.67)" />
    <g class="cls-9">
        <g id="scan-bars" class="cls-10">
            <rect class="cls-11" x="199.91" y="11.34" width="86.14" height="1.02" />
            <rect class="cls-12" x="199.92" y="9.1" width="86.14" height="0.51" />
            <rect class="cls-13" x="199.92" y="6.79" width="86.14" height="0.51" />
            <rect class="cls-14" x="199.92" y="4.55" width="86.14" height="0.51" />
            <rect class="cls-15" x="199.92" y="2.31" width="86.14" height="0.51" />
            <rect class="cls-16" x="199.92" width="86.14" height="0.51" />
        </g>
    </g>
</svg>