<svg xmlns="http://www.w3.org/2000/svg" xmlns:xlink="http://www.w3.org/1999/xlink" viewBox="0 0 218.18 475.19"><defs><clipPath id="e4f62829-fdc7-4d6b-91f6-680e592f39bf"><path d="M210.44,443.41a24.26,24.26,0,0,1-24.26,24.26H32a24.28,24.28,0,0,1-24.34-24.2V54.25a24.22,24.22,0,0,1,24.2-24.2H44.79a3.38,3.38,0,0,1,3.38,3.36h0v2.23a12.21,12.21,0,0,0,12.2,12.19h97.37A12.18,12.18,0,0,0,170,35.73v0h0V33.41A3.37,3.37,0,0,1,173.3,30h13a24.21,24.21,0,0,1,24.21,24.2h0Z" style="fill:none"/></clipPath></defs><g id="a4fd8e2c-f5ee-4245-94a0-02276c7835fc" data-name="reg-qrcode"><polygon points="102.99 220.02 96.92 220.02 96.92 207.88 102.99 207.88 102.99 213.95 115.12 213.95 115.12 220.02 109.05 220.02 109.05 226.1 102.99 226.1 102.99 220.02" style="fill:#010202"/><rect x="109.05" y="286.79" width="6.07" height="6.07" style="fill:#010202"/><polygon points="109.05 201.82 109.05 195.75 96.92 195.75 96.92 201.82 102.99 201.82 102.99 207.88 109.05 207.88 109.05 201.82" style="fill:#010202"/><path d="M127.26,195.75v30.39h24.33v6.07h6V195.75ZM151.59,220H133.31V201.79h18.28Z" style="fill:#010202"/><polygon points="66.57 232.17 60.5 232.17 60.5 238.23 72.72 238.23 72.72 232.17 66.57 232.17" style="fill:#010202"/><polygon points="66.57 250.4 72.72 250.4 72.72 256.47 78.77 256.47 78.77 238.24 72.72 238.24 72.72 244.31 60.57 244.31 60.57 256.46 66.64 256.46 66.57 250.4" style="fill:#010202"/><rect x="96.92" y="256.47" width="6.07" height="12.13" style="fill:#010202"/><rect x="115.12" y="195.78" width="6.07" height="18.23" style="fill:#010202"/><rect x="115.12" y="220.05" width="6.07" height="6.07" style="fill:#010202"/><rect x="139.42" y="207.91" width="6.07" height="6.07" style="fill:#010202"/><polygon points="78.73 207.91 72.72 207.91 72.72 213.98 78.77 213.98 78.73 207.91" style="fill:#010202"/><path d="M60.5,195.75v30.37H90.87V195.78Zm24.3,24.33H66.59V201.85H84.82Z" style="fill:#010202"/><polygon points="139.42 232.2 139.42 238.25 133.37 238.25 133.37 232.2 121.22 232.2 121.22 238.25 115.15 238.25 115.15 232.2 96.92 232.2 96.92 226.12 90.85 226.12 90.85 232.2 84.78 232.2 84.78 238.25 90.85 238.25 90.85 250.4 96.92 250.4 96.92 244.33 102.99 244.33 102.99 256.47 109.05 256.47 109.05 244.33 127.28 244.33 127.28 250.4 115.14 250.4 115.14 256.47 127.28 256.47 127.28 262.54 133.35 262.54 133.35 244.31 139.41 244.31 139.41 250.38 145.48 250.38 145.48 262.53 151.55 262.53 151.55 256.46 157.63 256.46 157.63 250.38 151.55 250.38 151.55 244.31 145.48 244.31 145.48 238.24 151.55 238.24 151.55 232.18 139.42 232.2" style="fill:#010202"/><rect x="72.72" y="274.64" width="6.06" height="6.07" style="fill:#010202"/><path d="M60.59,262.48l-.07,30.35H91V262.48Zm24.3,24.28H66.64V268.53H84.87Z" style="fill:#010202"/><rect x="133.41" y="262.47" width="6.06" height="6.06" style="fill:#010202"/><polygon points="139.47 274.6 133.41 274.6 133.41 280.67 127.27 280.67 127.27 274.6 121.2 274.6 121.2 268.53 127.27 268.53 127.27 262.47 115.12 262.47 115.12 256.4 109.05 256.4 109.05 268.53 102.99 268.53 102.99 274.6 96.92 274.6 96.92 292.83 102.99 292.83 102.99 286.76 109.05 286.76 109.05 280.69 121.2 280.69 121.2 292.83 127.27 292.83 127.27 286.76 133.34 286.76 133.34 292.83 145.47 292.83 145.47 286.76 151.54 286.76 151.54 280.69 139.4 280.69 139.47 274.6" style="fill:#010202"/><polygon points="84.85 256.37 90.92 256.37 90.92 250.3 84.78 250.3 84.85 256.37" style="fill:#010202"/><polygon points="145.54 268.5 145.54 274.57 151.61 274.57 151.61 280.65 157.68 280.65 157.68 262.42 151.61 262.42 151.61 268.47 145.54 268.5" style="fill:#010202"/><rect x="151.61" y="286.72" width="6.07" height="6.07" style="fill:#010202"/><rect x="151.61" y="238.16" width="6.07" height="6.07" style="fill:#010202"/></g><g id="be7b8373-6a0a-487d-9c0c-eae00e1f4db9" data-name="reg-border"><polygon points="145.54 183.53 169.81 183.53 169.81 207.81 181.96 207.81 181.96 171.35 145.5 171.35 145.54 183.53" style="fill:#010202"/><polygon points="48.43 207.81 48.43 183.61 72.72 183.61 72.72 171.48 36.26 171.48 36.26 207.94 48.43 207.81" style="fill:#010202"/><polygon points="72.72 304.99 48.36 304.99 48.36 280.72 36.26 280.72 36.26 317.18 72.72 317.18 72.72 304.99" style="fill:#010202"/><polygon points="169.81 280.72 169.81 304.99 145.47 304.99 145.47 317.13 181.93 317.13 181.93 280.67 169.81 280.72" style="fill:#010202"/></g><path d="M188.1,22.56H30a30,30,0,0,0-30,30V445.09a30.1,30.1,0,0,0,30.09,30.1h158a30.1,30.1,0,0,0,30.09-30.1h0V52.57A30.06,30.06,0,0,0,188.1,22.56Zm22.34,420.85a24.26,24.26,0,0,1-24.26,24.26H32a24.28,24.28,0,0,1-24.34-24.2V54.25a24.22,24.22,0,0,1,24.2-24.2H44.79a3.38,3.38,0,0,1,3.38,3.36h0v2.23a12.21,12.21,0,0,0,12.2,12.19h97.37A12.18,12.18,0,0,0,170,35.73v0h0V33.41A3.37,3.37,0,0,1,173.3,30h13a24.2,24.2,0,0,1,24.21,24.18h0Z" style="fill:#010101"/><g style="clip-path:url(#e4f62829-fdc7-4d6b-91f6-680e592f39bf)"><g id="e0685911-74a5-4530-88aa-b503dbf0b0b5" data-name="reg-scan-bars"><rect x="4.38" y="27.57" width="209.34" height="2.48" style="fill:#cd151b"/><rect x="4.4" y="22.11" width="209.34" height="1.25" style="fill:#cd151b;opacity:0.8999999761581421;isolation:isolate"/><rect x="4.4" y="16.51" width="209.34" height="1.25" style="fill:#cd151b;opacity:0.800000011920929;isolation:isolate"/><rect x="4.4" y="11.06" width="209.34" height="1.25" style="fill:#cd151b;opacity:0.699999988079071;isolation:isolate"/><rect x="4.4" y="5.61" width="209.34" height="1.25" style="fill:#cd151b;opacity:0.6000000238418579;isolation:isolate"/><rect x="4.4" width="209.34" height="1.25" style="fill:#cd151b;opacity:0.5;isolation:isolate"/></g></g></svg>