<svg id="f8e1ea73-069e-40fe-8767-49681c636ee9" data-name="Layer 1" xmlns="http://www.w3.org/2000/svg" xmlns:xlink="http://www.w3.org/1999/xlink" viewBox="0 0 218.18 475.19"><defs><clipPath id="f12929d1-93f2-4204-b17d-14c4fe5e2d83"><path d="M210.44,443.41a24.26,24.26,0,0,1-24.26,24.26H32a24.28,24.28,0,0,1-24.34-24.2V54.25a24.22,24.22,0,0,1,24.2-24.2H44.79a3.38,3.38,0,0,1,3.38,3.36h0v2.23a12.21,12.21,0,0,0,12.2,12.19h97.37A12.18,12.18,0,0,0,170,35.73h0V33.41A3.37,3.37,0,0,1,173.3,30h13a24.21,24.21,0,0,1,24.21,24.2h0Z" style="fill:none"/></clipPath><radialGradient id="aea6d6ca-9321-46e3-803d-dfa59dcc10a1" cx="-70.06" cy="-180.28" r="22.94" gradientTransform="matrix(0, -1.98, -1.84, 0, -268.73, 166.53)" gradientUnits="userSpaceOnUse"><stop offset="0" stop-color="#fd5"/><stop offset="0.1" stop-color="#fd5"/><stop offset="0.5" stop-color="#ff543e"/><stop offset="1" stop-color="#c837ab"/></radialGradient><radialGradient id="ba7d622d-7f69-4f4f-813c-ef0273f6a994" cx="340.7" cy="56.49" r="22.94" gradientTransform="matrix(0.17, 0.87, 3.58, -0.72, -217.8, 3.83)" gradientUnits="userSpaceOnUse"><stop offset="0" stop-color="#3771c8"/><stop offset="0.13" stop-color="#3771c8"/><stop offset="1" stop-color="#60f" stop-opacity="0"/></radialGradient></defs><g id="ae8ff40b-fd49-446c-966f-2ba150f20f9f" data-name="reg-border"><polygon points="145.54 183.53 169.81 183.53 169.81 207.81 181.96 207.81 181.96 171.35 145.5 171.35 145.54 183.53" style="fill:#010202"/><polygon points="48.43 207.81 48.43 183.61 72.72 183.61 72.72 171.48 36.26 171.48 36.26 207.94 48.43 207.81" style="fill:#010202"/><polygon points="72.72 304.99 48.36 304.99 48.36 280.72 36.26 280.72 36.26 317.18 72.72 317.18 72.72 304.99" style="fill:#010202"/><polygon points="169.81 280.72 169.81 304.99 145.47 304.99 145.47 317.13 181.93 317.13 181.93 280.67 169.81 280.72" style="fill:#010202"/></g><path d="M188.1,22.56H30a30,30,0,0,0-30,30V445.09a30.1,30.1,0,0,0,30.09,30.1h158a30.1,30.1,0,0,0,30.09-30.1h0V52.57A30.06,30.06,0,0,0,188.1,22.56Zm22.34,420.85a24.26,24.26,0,0,1-24.26,24.26H32a24.28,24.28,0,0,1-24.34-24.2V54.25a24.22,24.22,0,0,1,24.2-24.2H44.79a3.38,3.38,0,0,1,3.38,3.36h0v2.23a12.21,12.21,0,0,0,12.2,12.19h97.37A12.18,12.18,0,0,0,170,35.73h0V33.41A3.37,3.37,0,0,1,173.3,30h13a24.2,24.2,0,0,1,24.21,24.18h0Z" style="fill:#010101"/><g style="clip-path:url(#f12929d1-93f2-4204-b17d-14c4fe5e2d83)"><g id="a4e66dfd-894c-4260-aca7-69968206815e" data-name="reg-scan-bars"><rect x="4.38" y="27.57" width="209.34" height="2.48" style="fill:#cd151b"/><rect x="4.4" y="22.11" width="209.34" height="1.25" style="fill:#cd151b;opacity:0.8999999761581421;isolation:isolate"/><rect x="4.4" y="16.51" width="209.34" height="1.25" style="fill:#cd151b;opacity:0.800000011920929;isolation:isolate"/><rect x="4.4" y="11.06" width="209.34" height="1.25" style="fill:#cd151b;opacity:0.699999988079071;isolation:isolate"/><rect x="4.4" y="5.61" width="209.34" height="1.25" style="fill:#cd151b;opacity:0.6000000238418579;isolation:isolate"/><rect x="4.4" width="209.34" height="1.25" style="fill:#cd151b;opacity:0.5;isolation:isolate"/></g></g><g id="b8d586b5-e593-4074-a192-9eb1aa44e0c0" data-name="reg-qrcode-group"><g id="af31239a-0f72-4312-aa48-d6817404fa26" data-name="reg-qrcode"><polygon points="102.99 220.02 96.92 220.02 96.92 207.88 102.99 207.88 102.99 213.95 115.12 213.95 115.12 220.02 109.05 220.02 109.05 226.1 102.99 226.1 102.99 220.02" style="fill:#010202"/><rect x="109.05" y="286.79" width="6.07" height="6.07" style="fill:#010202"/><polygon points="109.05 201.82 109.05 195.75 96.92 195.75 96.92 201.82 102.99 201.82 102.99 207.88 109.05 207.88 109.05 201.82" style="fill:#010202"/><path d="M127.26,195.75v30.39h24.33v6.07h6V195.75ZM151.59,220H133.31V201.79h18.28Z" style="fill:#010202"/><polygon points="66.57 232.17 60.5 232.17 60.5 238.23 72.72 238.23 72.72 232.17 66.57 232.17" style="fill:#010202"/><polygon points="66.57 250.4 72.72 250.4 72.72 256.47 78.77 256.47 78.77 238.24 72.72 238.24 72.72 244.31 60.57 244.31 60.57 256.46 66.64 256.46 66.57 250.4" style="fill:#010202"/><rect x="96.92" y="256.47" width="6.07" height="12.13" style="fill:#010202"/><rect x="115.12" y="195.78" width="6.07" height="18.23" style="fill:#010202"/><rect x="115.12" y="220.05" width="6.07" height="6.07" style="fill:#010202"/><rect x="139.42" y="207.91" width="6.07" height="6.07" style="fill:#010202"/><polygon points="78.73 207.91 72.72 207.91 72.72 213.98 78.77 213.98 78.73 207.91" style="fill:#010202"/><path d="M60.5,195.75v30.37H90.87V195.78Zm24.3,24.33H66.59V201.85H84.82Z" style="fill:#010202"/><polygon points="139.42 232.2 139.42 238.25 133.37 238.25 133.37 232.2 121.22 232.2 121.22 238.25 115.15 238.25 115.15 232.2 96.92 232.2 96.92 226.12 90.85 226.12 90.85 232.2 84.78 232.2 84.78 238.25 90.85 238.25 90.85 250.4 96.92 250.4 96.92 244.33 102.99 244.33 102.99 256.47 109.05 256.47 109.05 244.33 127.28 244.33 127.28 250.4 115.14 250.4 115.14 256.47 127.28 256.47 127.28 262.54 133.35 262.54 133.35 244.31 139.41 244.31 139.41 250.38 145.48 250.38 145.48 262.53 151.55 262.53 151.55 256.46 157.63 256.46 157.63 250.38 151.55 250.38 151.55 244.31 145.48 244.31 145.48 238.24 151.55 238.24 151.55 232.18 139.42 232.2" style="fill:#010202"/><rect x="72.72" y="274.64" width="6.06" height="6.07" style="fill:#010202"/><path d="M60.59,262.48l-.07,30.35H91V262.48Zm24.3,24.28H66.64V268.53H84.87Z" style="fill:#010202"/><rect x="133.41" y="262.47" width="6.06" height="6.06" style="fill:#010202"/><polygon points="139.47 274.6 133.41 274.6 133.41 280.67 127.27 280.67 127.27 274.6 121.2 274.6 121.2 268.53 127.27 268.53 127.27 262.47 115.12 262.47 115.12 256.4 109.05 256.4 109.05 268.53 102.99 268.53 102.99 274.6 96.92 274.6 96.92 292.83 102.99 292.83 102.99 286.76 109.05 286.76 109.05 280.69 121.2 280.69 121.2 292.83 127.27 292.83 127.27 286.76 133.34 286.76 133.34 292.83 145.47 292.83 145.47 286.76 151.54 286.76 151.54 280.69 139.4 280.69 139.47 274.6" style="fill:#010202"/><polygon points="84.85 256.37 90.92 256.37 90.92 250.3 84.78 250.3 84.85 256.37" style="fill:#010202"/><polygon points="145.54 268.5 145.54 274.57 151.61 274.57 151.61 280.65 157.68 280.65 157.68 262.42 151.61 262.42 151.61 268.47 145.54 268.5" style="fill:#010202"/><rect x="151.61" y="286.72" width="6.07" height="6.07" style="fill:#010202"/><rect x="151.61" y="238.16" width="6.07" height="6.07" style="fill:#010202"/></g><g id="a6c9bcd1-e28b-46e8-96c7-d7d7affb841e" data-name="reg-qrcode-label" style="opacity:0"><path d="M74.45,256c-9.58,0-12.38,0-12.92.06A11.18,11.18,0,0,0,57,257.18a9.12,9.12,0,0,0-2.64,1.93,9.82,9.82,0,0,0-2.66,5.58c-.15,1.07-.2,1.29-.21,6.77v7.45c0,9.57,0,12.37.06,12.92a11.66,11.66,0,0,0,1.09,4.43,9.69,9.69,0,0,0,6.27,5.12,17,17,0,0,0,3.33.44c.57,0,6.36,0,12.15,0s11.59,0,12.15,0a15.4,15.4,0,0,0,3.45-.45,9.61,9.61,0,0,0,6.26-5.12,11.21,11.21,0,0,0,1.08-4.35c0-.4,0-6.7,0-13s0-12.59,0-13a11.15,11.15,0,0,0-1.1-4.39,8.92,8.92,0,0,0-2-2.69,10,10,0,0,0-5.59-2.66c-1.07-.15-1.29-.2-6.77-.21Z" style="fill:url(#aea6d6ca-9321-46e3-803d-dfa59dcc10a1)"/><path d="M74.45,256c-9.58,0-12.38,0-12.92.06A11.18,11.18,0,0,0,57,257.18a9.12,9.12,0,0,0-2.64,1.93,9.82,9.82,0,0,0-2.66,5.58c-.15,1.07-.2,1.29-.21,6.77v7.45c0,9.57,0,12.37.06,12.92a11.66,11.66,0,0,0,1.09,4.43,9.69,9.69,0,0,0,6.27,5.12,17,17,0,0,0,3.33.44c.57,0,6.36,0,12.15,0s11.59,0,12.15,0a15.4,15.4,0,0,0,3.45-.45,9.61,9.61,0,0,0,6.26-5.12,11.21,11.21,0,0,0,1.08-4.35c0-.4,0-6.7,0-13s0-12.59,0-13a11.15,11.15,0,0,0-1.1-4.39,8.92,8.92,0,0,0-2-2.69,10,10,0,0,0-5.59-2.66c-1.07-.15-1.29-.2-6.77-.21Z" style="fill:url(#ba7d622d-7f69-4f4f-813c-ef0273f6a994)"/><path d="M74.44,262c-4.6,0-5.18,0-7,.11a12.39,12.39,0,0,0-4.12.78,8.41,8.41,0,0,0-3,2,8.21,8.21,0,0,0-2,3,12.3,12.3,0,0,0-.79,4.11c-.08,1.81-.1,2.38-.1,7s0,5.18.1,7a12.35,12.35,0,0,0,.79,4.11,8.62,8.62,0,0,0,5,5,12.35,12.35,0,0,0,4.11.79c1.81.08,2.39.1,7,.1s5.18,0,7-.1a12.37,12.37,0,0,0,4.12-.79,8.38,8.38,0,0,0,3-2,8.29,8.29,0,0,0,1.95-3,12.61,12.61,0,0,0,.79-4.11c.08-1.81.1-2.39.1-7s0-5.17-.1-7a12.56,12.56,0,0,0-.79-4.11,8.21,8.21,0,0,0-1.95-3,8.41,8.41,0,0,0-3-2,12.45,12.45,0,0,0-4.12-.78c-1.81-.09-2.38-.11-7-.11ZM72.92,265h1.52c4.52,0,5.06,0,6.85.09a9.49,9.49,0,0,1,3.14.59A5.17,5.17,0,0,1,86.38,267a5.4,5.4,0,0,1,1.27,1.95,9.64,9.64,0,0,1,.58,3.15c.08,1.78.1,2.32.1,6.84s0,5.06-.1,6.84a9.64,9.64,0,0,1-.58,3.15,5.28,5.28,0,0,1-1.27,1.94,5.19,5.19,0,0,1-1.95,1.27,9.24,9.24,0,0,1-3.14.58c-1.79.09-2.33.1-6.85.1s-5.06,0-6.84-.1a9.31,9.31,0,0,1-3.15-.58,5.65,5.65,0,0,1-3.22-3.21,9.64,9.64,0,0,1-.58-3.15c-.08-1.78-.1-2.32-.1-6.84s0-5.06.1-6.85a9.5,9.5,0,0,1,.58-3.14A5.32,5.32,0,0,1,62.5,267a5.4,5.4,0,0,1,2-1.27,9.31,9.31,0,0,1,3.15-.58c1.56-.07,2.16-.09,5.32-.1Zm10.56,2.81a2,2,0,1,0,2,2,2,2,0,0,0-2-2Zm-9,2.37a8.7,8.7,0,1,0,8.7,8.7,8.71,8.71,0,0,0-8.7-8.7Zm0,3.06a5.65,5.65,0,1,1-5.65,5.64A5.65,5.65,0,0,1,74.44,273.28Z" style="fill:#fff"/></g></g></svg>