<svg id="Ebene_1" data-name="Ebene 1" xmlns="http://www.w3.org/2000/svg" xmlns:xlink="http://www.w3.org/1999/xlink"
    viewBox="0 0 250 500">
    <defs>
        <style>
            .cls-1 {
                fill: none;
            }

            .cls-2 {
                fill: #010202;
            }

            .cls-3 {
                fill: #010101;
            }

            .cls-4 {
                clip-path: url(#clip-path);
            }

            .cls-10,
            .cls-5,
            .cls-6,
            .cls-7,
            .cls-8,
            .cls-9 {
                fill: #cd151b;
            }

            .cls-6 {
                opacity: 0.9;
            }

            .cls-10,
            .cls-6,
            .cls-7,
            .cls-8,
            .cls-9 {
                isolation: isolate;
            }

            .cls-7 {
                opacity: 0.8;
            }

            .cls-8 {
                opacity: 0.7;
            }

            .cls-9 {
                opacity: 0.6;
            }

            .cls-10 {
                opacity: 0.5;
            }
        </style>
        <clipPath id="clip-path" transform="translate(-174.36 -34.59)">
            <path id="SVGID" class="cls-1"
                d="M384.85,478a24.26,24.26,0,0,1-24.26,24.26H206.33A24.28,24.28,0,0,1,182.07,478V88.84a24.21,24.21,0,0,1,24.2-24.2H219.2A3.38,3.38,0,0,1,222.58,68h0v2.23a12.21,12.21,0,0,0,12.2,12.19h97.37a12.18,12.18,0,0,0,12.18-12.19h0V68a3.38,3.38,0,0,1,3.38-3.38h13a24.21,24.21,0,0,1,24.21,24.2h0Z" />
        </clipPath>
    </defs>
    <title>small_qrscan_explanation</title>
    <g id="qrcode">
        <polygon class="cls-2"
            points="103.04 220.02 96.97 220.02 96.97 207.88 103.04 207.88 103.04 213.95 115.17 213.95 115.17 220.02 109.1 220.02 109.1 226.1 103.04 226.1 103.04 220.02" />
        <rect class="cls-2" x="109.1" y="286.79" width="6.07" height="6.07" />
        <polygon class="cls-2"
            points="109.1 201.82 109.1 195.75 96.97 195.75 96.97 201.82 103.04 201.82 103.04 207.88 109.1 207.88 109.1 201.82" />
        <path class="cls-2" d="M301.67,230.34v30.39H326v6.07H332V230.34ZM326,254.61H307.72V236.38H326Z"
            transform="translate(-174.36 -34.59)" />
        <polygon class="cls-2" points="66.62 232.17 60.55 232.17 60.55 238.23 72.77 238.23 72.77 232.17 66.62 232.17" />
        <polygon class="cls-2"
            points="66.62 250.4 72.77 250.4 72.77 256.47 78.82 256.47 78.82 238.24 72.77 238.24 72.77 244.31 60.62 244.31 60.62 256.46 66.69 256.46 66.62 250.4" />
        <rect class="cls-2" x="96.97" y="256.47" width="6.07" height="12.13" />
        <rect class="cls-2" x="115.17" y="195.78" width="6.07" height="18.23" />
        <rect class="cls-2" x="115.17" y="220.05" width="6.07" height="6.07" />
        <rect class="cls-2" x="139.47" y="207.91" width="6.07" height="6.07" />
        <polygon class="cls-2" points="78.78 207.91 72.77 207.91 72.77 213.98 78.82 213.98 78.78 207.91" />
        <path class="cls-2" d="M234.91,230.34v30.37h30.37V230.37Zm24.3,24.33H241V236.44h18.23Z"
            transform="translate(-174.36 -34.59)" />
        <polygon class="cls-2"
            points="139.47 232.2 139.47 238.25 133.42 238.25 133.42 232.2 121.27 232.2 121.27 238.25 115.2 238.25 115.2 232.2 96.97 232.2 96.97 226.12 90.9 226.12 90.9 232.2 84.83 232.2 84.83 238.25 90.9 238.25 90.9 250.4 96.97 250.4 96.97 244.33 103.04 244.33 103.04 256.47 109.1 256.47 109.1 244.33 127.33 244.33 127.33 250.4 115.19 250.4 115.19 256.47 127.33 256.47 127.33 262.54 133.4 262.54 133.4 244.31 139.46 244.31 139.46 250.38 145.53 250.38 145.53 262.53 151.6 262.53 151.6 256.46 157.68 256.46 157.68 250.38 151.6 250.38 151.6 244.31 145.53 244.31 145.53 238.24 151.6 238.24 151.6 232.18 139.47 232.2" />
        <rect class="cls-2" x="72.77" y="274.64" width="6.06" height="6.07" />
        <path class="cls-2" d="M235,297.07l-.07,30.35h30.42V297.07Zm24.3,24.28H241.05V303.12h18.23Z"
            transform="translate(-174.36 -34.59)" />
        <rect class="cls-2" x="133.46" y="262.47" width="6.06" height="6.06" />
        <polygon class="cls-2"
            points="139.52 274.6 133.46 274.6 133.46 280.67 127.32 280.67 127.32 274.6 121.25 274.6 121.25 268.53 127.32 268.53 127.32 262.47 115.17 262.47 115.17 256.4 109.1 256.4 109.1 268.53 103.04 268.53 103.04 274.6 96.97 274.6 96.97 292.83 103.04 292.83 103.04 286.76 109.1 286.76 109.1 280.69 121.25 280.69 121.25 292.83 127.32 292.83 127.32 286.76 133.39 286.76 133.39 292.83 145.52 292.83 145.52 286.76 151.59 286.76 151.59 280.69 139.45 280.69 139.52 274.6" />
        <polygon class="cls-2" points="84.9 256.37 90.97 256.37 90.97 250.3 84.83 250.3 84.9 256.37" />
        <polygon class="cls-2"
            points="145.59 268.5 145.59 274.57 151.66 274.57 151.66 280.65 157.73 280.65 157.73 262.42 151.66 262.42 151.66 268.47 145.59 268.5" />
        <rect class="cls-2" x="151.66" y="286.72" width="6.07" height="6.07" />
        <rect class="cls-2" x="151.66" y="238.16" width="6.07" height="6.07" />
    </g>
    <g id="border">
        <polygon id="top-right" class="cls-2"
            points="145.59 183.53 169.86 183.53 169.86 207.81 182.01 207.81 182.01 171.35 145.55 171.35 145.59 183.53" />
        <polygon id="top-left" class="cls-2"
            points="48.48 207.81 48.48 183.61 72.77 183.61 72.77 171.48 36.31 171.48 36.31 207.94 48.48 207.81" />
        <polygon id="bottom-left" class="cls-2"
            points="72.77 304.99 48.41 304.99 48.41 280.72 36.31 280.72 36.31 317.18 72.77 317.18 72.77 304.99" />
        <polygon id="bottom-right" class="cls-2"
            points="169.86 280.72 169.86 304.99 145.52 304.99 145.52 317.13 181.98 317.13 181.98 280.67 169.86 280.72" />
    </g>
    <path id="phone" class="cls-3"
        d="M362.51,57.15H204.41a30.05,30.05,0,0,0-30,30.05V479.68a30.1,30.1,0,0,0,30.09,30.1h158a30.1,30.1,0,0,0,30.09-30.1h0V87.16A30.06,30.06,0,0,0,362.51,57.15ZM384.85,478a24.26,24.26,0,0,1-24.26,24.26H206.33A24.28,24.28,0,0,1,182.07,478V88.84a24.21,24.21,0,0,1,24.2-24.2H219.2A3.38,3.38,0,0,1,222.58,68h0v2.23a12.21,12.21,0,0,0,12.2,12.19h97.37a12.18,12.18,0,0,0,12.18-12.19h0V68a3.38,3.38,0,0,1,3.38-3.38h13a24.2,24.2,0,0,1,24.21,24.18v0Z"
        transform="translate(-174.36 -34.59)" />
    <g class="cls-4">
        <g id="scan-bars">
            <rect class="cls-5" x="4.43" y="27.57" width="209.34" height="2.48" />
            <rect class="cls-6" x="4.45" y="22.11" width="209.34" height="1.25" />
            <rect class="cls-7" x="4.45" y="16.51" width="209.34" height="1.25" />
            <rect class="cls-8" x="4.45" y="11.06" width="209.34" height="1.25" />
            <rect class="cls-9" x="4.45" y="5.61" width="209.34" height="1.25" />
            <rect class="cls-10" x="4.45" width="209.34" height="1.25" />
        </g>
    </g>
</svg>