<svg xmlns="http://www.w3.org/2000/svg" xmlns:xlink="http://www.w3.org/1999/xlink" viewBox="0 0 218.18 475.19"><defs><clipPath id="bc49edce-52a6-4bb0-ab63-d5c0517bfdb6"><path d="M210.44,443.41a24.26,24.26,0,0,1-24.26,24.26H32a24.28,24.28,0,0,1-24.34-24.2V54.25a24.22,24.22,0,0,1,24.2-24.2H44.79a3.38,3.38,0,0,1,3.38,3.36h0v2.23a12.21,12.21,0,0,0,12.2,12.19h97.37A12.18,12.18,0,0,0,170,35.73h0V33.41A3.37,3.37,0,0,1,173.3,30h13a24.21,24.21,0,0,1,24.21,24.2h0Z" style="fill:none"/></clipPath><radialGradient id="a5ae7093-410c-49a7-a828-1d7e88e98ad2" cx="-202.48" cy="762.19" r="30.41" gradientTransform="translate(-1308.49 -121.67) rotate(-90) scale(1.98 1.84)" gradientUnits="userSpaceOnUse"><stop offset="0" stop-color="#fd5"/><stop offset="0.1" stop-color="#fd5"/><stop offset="0.5" stop-color="#ff543e"/><stop offset="1" stop-color="#c837ab"/></radialGradient><radialGradient id="b66e0454-aa8b-4c6f-90cc-6acfd62a900f" cx="204.2" cy="386.8" r="30.41" gradientTransform="matrix(0.17, 0.87, -3.58, 0.72, 1416.62, -237.45)" gradientUnits="userSpaceOnUse"><stop offset="0" stop-color="#3771c8"/><stop offset="0.13" stop-color="#3771c8"/><stop offset="1" stop-color="#60f" stop-opacity="0"/></radialGradient></defs><path d="M188.1,22.56H30a30,30,0,0,0-30,30V445.09a30.1,30.1,0,0,0,30.09,30.1h158a30.1,30.1,0,0,0,30.09-30.1h0V52.57A30.06,30.06,0,0,0,188.1,22.56Zm22.34,420.85a24.26,24.26,0,0,1-24.26,24.26H32a24.28,24.28,0,0,1-24.34-24.2V54.25a24.22,24.22,0,0,1,24.2-24.2H44.79a3.38,3.38,0,0,1,3.38,3.36h0v2.23a12.21,12.21,0,0,0,12.2,12.19h97.37A12.18,12.18,0,0,0,170,35.73h0V33.41A3.37,3.37,0,0,1,173.3,30h13a24.2,24.2,0,0,1,24.21,24.18h0Z" style="fill:#010101"/><g style="clip-path:url(#bc49edce-52a6-4bb0-ab63-d5c0517bfdb6)"><g id="f99e66ef-094d-459b-9d94-81c253a897a7" data-name="reg-scan-bars"><rect x="4.38" y="27.57" width="209.34" height="2.48" style="fill:#cd151b"/><rect x="4.4" y="22.11" width="209.34" height="1.25" style="fill:#cd151b;opacity:0.8999999761581421;isolation:isolate"/><rect x="4.4" y="16.51" width="209.34" height="1.25" style="fill:#cd151b;opacity:0.800000011920929;isolation:isolate"/><rect x="4.4" y="11.06" width="209.34" height="1.25" style="fill:#cd151b;opacity:0.699999988079071;isolation:isolate"/><rect x="4.4" y="5.61" width="209.34" height="1.25" style="fill:#cd151b;opacity:0.6000000238418579;isolation:isolate"/><rect x="4.4" width="209.34" height="1.25" style="fill:#cd151b;opacity:0.5;isolation:isolate"/></g></g><g id="b985f312-50d6-430a-a798-d9586820f561" data-name="reg-qrcode-group"><g id="ae56c63d-8951-41d4-aefa-866386672300" data-name="req-qrcode"><polygon points="102.99 220.02 96.92 220.02 96.92 207.88 102.99 207.88 102.99 213.95 115.12 213.95 115.12 220.02 109.05 220.02 109.05 226.1 102.99 226.1 102.99 220.02" style="fill:#010202"/><rect x="109.05" y="286.79" width="6.07" height="6.07" style="fill:#010202"/><polygon points="109.05 201.82 109.05 195.75 96.92 195.75 96.92 201.82 102.99 201.82 102.99 207.88 109.05 207.88 109.05 201.82" style="fill:#010202"/><path d="M127.26,195.75v30.39h24.33v6.07h6V195.75ZM151.59,220H133.31V201.79h18.28Z" style="fill:#010202"/><polygon points="66.57 232.17 60.5 232.17 60.5 238.23 72.72 238.23 72.72 232.17 66.57 232.17" style="fill:#010202"/><polygon points="66.57 250.4 72.72 250.4 72.72 256.47 78.77 256.47 78.77 238.24 72.72 238.24 72.72 244.31 60.57 244.31 60.57 256.46 66.64 256.46 66.57 250.4" style="fill:#010202"/><rect x="96.92" y="256.47" width="6.07" height="12.13" style="fill:#010202"/><rect x="115.12" y="195.78" width="6.07" height="18.23" style="fill:#010202"/><rect x="115.12" y="220.05" width="6.07" height="6.07" style="fill:#010202"/><rect x="139.42" y="207.91" width="6.07" height="6.07" style="fill:#010202"/><polygon points="78.73 207.91 72.72 207.91 72.72 213.98 78.77 213.98 78.73 207.91" style="fill:#010202"/><path d="M60.5,195.75v30.37H90.87V195.78Zm24.3,24.33H66.59V201.85H84.82Z" style="fill:#010202"/><polygon points="139.42 232.2 139.42 238.25 133.37 238.25 133.37 232.2 121.22 232.2 121.22 238.25 115.15 238.25 115.15 232.2 96.92 232.2 96.92 226.12 90.85 226.12 90.85 232.2 84.78 232.2 84.78 238.25 90.85 238.25 90.85 250.4 96.92 250.4 96.92 244.33 102.99 244.33 102.99 256.47 109.05 256.47 109.05 244.33 127.28 244.33 127.28 250.4 115.14 250.4 115.14 256.47 127.28 256.47 127.28 262.54 133.35 262.54 133.35 244.31 139.41 244.31 139.41 250.38 145.48 250.38 145.48 262.53 151.55 262.53 151.55 256.46 157.63 256.46 157.63 250.38 151.55 250.38 151.55 244.31 145.48 244.31 145.48 238.24 151.55 238.24 151.55 232.18 139.42 232.2" style="fill:#010202"/><rect x="72.72" y="274.64" width="6.06" height="6.07" style="fill:#010202"/><path d="M60.59,262.48l-.07,30.35H91V262.48Zm24.3,24.28H66.64V268.53H84.87Z" style="fill:#010202"/><rect x="133.41" y="262.47" width="6.06" height="6.06" style="fill:#010202"/><polygon points="139.47 274.6 133.41 274.6 133.41 280.67 127.27 280.67 127.27 274.6 121.2 274.6 121.2 268.53 127.27 268.53 127.27 262.47 115.12 262.47 115.12 256.4 109.05 256.4 109.05 268.53 102.99 268.53 102.99 274.6 96.92 274.6 96.92 292.83 102.99 292.83 102.99 286.76 109.05 286.76 109.05 280.69 121.2 280.69 121.2 292.83 127.27 292.83 127.27 286.76 133.34 286.76 133.34 292.83 145.47 292.83 145.47 286.76 151.54 286.76 151.54 280.69 139.4 280.69 139.47 274.6" style="fill:#010202"/><polygon points="84.85 256.37 90.92 256.37 90.92 250.3 84.78 250.3 84.85 256.37" style="fill:#010202"/><polygon points="145.54 268.5 145.54 274.57 151.61 274.57 151.61 280.65 157.68 280.65 157.68 262.42 151.61 262.42 151.61 268.47 145.54 268.5" style="fill:#010202"/><rect x="151.61" y="286.72" width="6.07" height="6.07" style="fill:#010202"/><rect x="151.61" y="238.16" width="6.07" height="6.07" style="fill:#010202"/></g><g id="bba87d02-7cf7-42b6-b048-b03c3c6f68d7" data-name="reg-tick"><path d="M139.22,301.74a27.61,27.61,0,1,1,0-55.22,27.3,27.3,0,0,1,17.06,5.91,145.48,145.48,0,0,1,12.26-8.4l3.94-2.45,4.39,10.1-2.2,1.92a92.53,92.53,0,0,0-9.89,10l.41,1.16a27.61,27.61,0,0,1-26,37Z" style="fill:#fff"/><path d="M122.48,269.06l4.24-3.92a82.33,82.33,0,0,1,13.68,8.2c10.48-11.88,17.4-17.91,30.26-25.92l1.38,3.17c-10.61,9.26-18.38,19.57-29.56,39.64A214,214,0,0,0,122.48,269.06Zm35.69,1.43a19,19,0,0,1,.36,3.64,19.39,19.39,0,1,1-8-15.59q1.65-1.5,3.33-2.9a23.58,23.58,0,1,0,7.54,10.48Q159.81,268.19,158.17,270.49Z" style="fill:#a2c621"/></g></g><g id="abb292a4-bed5-4d85-befc-1f643250e555" data-name="reg-border"><polygon points="145.53 183.53 169.8 183.53 169.8 207.81 181.95 207.81 181.95 171.35 145.49 171.35 145.53 183.53" style="fill:#010202"/><polygon points="48.42 207.81 48.42 183.61 72.71 183.61 72.71 171.48 36.25 171.48 36.25 207.94 48.42 207.81" style="fill:#010202"/><polygon points="72.71 304.99 48.35 304.99 48.35 280.72 36.25 280.72 36.25 317.18 72.71 317.18 72.71 304.99" style="fill:#010202"/><polygon points="169.8 280.72 169.8 304.99 145.46 304.99 145.46 317.13 181.92 317.13 181.92 280.67 169.8 280.72" style="fill:#010202"/></g><g id="b88998f0-dd7a-4e17-ac04-601d4728a2e8" data-name="reg-insta" style="opacity:0"><path d="M109.14,214c-12.7,0-16.41,0-17.12.08a14.76,14.76,0,0,0-6,1.49,12.21,12.21,0,0,0-3.5,2.55,13.06,13.06,0,0,0-3.52,7.4c-.2,1.42-.27,1.71-.28,9v9.88c0,12.68,0,16.39.08,17.12a15.55,15.55,0,0,0,1.44,5.88,12.87,12.87,0,0,0,8.32,6.78,21.75,21.75,0,0,0,4.41.58h32.21a20.16,20.16,0,0,0,4.57-.59,12.74,12.74,0,0,0,8.3-6.79,14.78,14.78,0,0,0,1.43-5.76V227.09a14.71,14.71,0,0,0-1.46-5.82,11.87,11.87,0,0,0-2.65-3.56,13.3,13.3,0,0,0-7.41-3.53c-1.42-.2-1.71-.26-9-.27Z" style="fill:url(#a5ae7093-410c-49a7-a828-1d7e88e98ad2)"/><path d="M109.14,214c-12.7,0-16.41,0-17.12.08a14.76,14.76,0,0,0-6,1.49,12.21,12.21,0,0,0-3.5,2.55,13.06,13.06,0,0,0-3.52,7.4c-.2,1.42-.27,1.71-.28,9v9.88c0,12.68,0,16.39.08,17.12a15.55,15.55,0,0,0,1.44,5.88,12.87,12.87,0,0,0,8.32,6.78,21.75,21.75,0,0,0,4.41.58h32.21a20.16,20.16,0,0,0,4.57-.59,12.74,12.74,0,0,0,8.3-6.79,14.78,14.78,0,0,0,1.43-5.76V227.09a14.71,14.71,0,0,0-1.46-5.82,11.87,11.87,0,0,0-2.65-3.56,13.3,13.3,0,0,0-7.41-3.53c-1.42-.2-1.71-.26-9-.27Z" style="fill:url(#b66e0454-aa8b-4c6f-90cc-6acfd62a900f)"/><path d="M109.13,221.92c-6.1,0-6.87,0-9.28.15a16.46,16.46,0,0,0-5.46,1,11.25,11.25,0,0,0-4,2.65,11.12,11.12,0,0,0-2.65,4,16.37,16.37,0,0,0-1,5.45c-.11,2.4-.14,3.15-.14,9.28s0,6.86.14,9.28a16.31,16.31,0,0,0,1,5.44,11.44,11.44,0,0,0,6.63,6.63,16.38,16.38,0,0,0,5.45,1.05c2.4.1,3.17.13,9.28.13s6.86,0,9.27-.13a16.49,16.49,0,0,0,5.47-1.05,11.08,11.08,0,0,0,4-2.65,11,11,0,0,0,2.59-4,16.56,16.56,0,0,0,1-5.44c.11-2.4.14-3.17.14-9.28s0-6.86-.14-9.28a16.67,16.67,0,0,0-1-5.45,10.84,10.84,0,0,0-2.59-4,11.21,11.21,0,0,0-4-2.65,16.47,16.47,0,0,0-5.47-1c-2.39-.12-3.15-.15-9.27-.15Zm-2,4h2c6,0,6.71,0,9.08.12a12.57,12.57,0,0,1,4.16.78,7,7,0,0,1,2.59,1.75,7.2,7.2,0,0,1,1.68,2.59,12.66,12.66,0,0,1,.77,4.17c.1,2.36.13,3.08.13,9.07s0,6.7-.13,9.06a12.67,12.67,0,0,1-.77,4.18,7,7,0,0,1-1.68,2.57,6.82,6.82,0,0,1-2.59,1.68,12.07,12.07,0,0,1-4.16.77c-2.37.12-3.09.14-9.08.14s-6.71,0-9.07-.14a12.17,12.17,0,0,1-4.17-.77,7.45,7.45,0,0,1-4.27-4.25,12.67,12.67,0,0,1-.77-4.18c-.1-2.36-.13-3.07-.13-9.06s0-6.71.13-9.08a12.56,12.56,0,0,1,.77-4.16,7.07,7.07,0,0,1,1.68-2.59A7.25,7.25,0,0,1,96,226.87a12.18,12.18,0,0,1,4.18-.77c2.07-.09,2.86-.12,7.05-.13Zm14,3.73a2.65,2.65,0,1,0,2.65,2.65A2.65,2.65,0,0,0,121.11,229.63Zm-11.93,3.14a11.53,11.53,0,1,0,11.53,11.53A11.53,11.53,0,0,0,109.18,232.77Zm0,4a7.49,7.49,0,1,1-7.49,7.49h0a7.49,7.49,0,0,1,7.44-7.42Z" style="fill:#fff"/></g></svg>