<svg id="e55c1b3e-417e-439f-94dc-bd525815053d" data-name="Layer 1" xmlns="http://www.w3.org/2000/svg" xmlns:xlink="http://www.w3.org/1999/xlink" viewBox="0 0 218.18 475.19"><defs><clipPath id="a3a57511-7dd1-438e-87b8-e949f945ce3e"><path d="M210.44,443.41a24.26,24.26,0,0,1-24.26,24.26H32a24.28,24.28,0,0,1-24.34-24.2V54.25a24.22,24.22,0,0,1,24.2-24.2H44.79a3.38,3.38,0,0,1,3.38,3.36h0v2.23a12.21,12.21,0,0,0,12.2,12.19h97.37A12.18,12.18,0,0,0,170,35.73h0V33.41A3.37,3.37,0,0,1,173.3,30h13a24.21,24.21,0,0,1,24.21,24.2h0Z" style="fill:none"/></clipPath></defs><g id="af78689e-4622-4c22-95a0-1a7c6ce2a3af" data-name="reg-border"><polygon points="145.54 183.53 169.81 183.53 169.81 207.81 181.96 207.81 181.96 171.35 145.5 171.35 145.54 183.53" style="fill:#010202"/><polygon points="48.43 207.81 48.43 183.61 72.72 183.61 72.72 171.48 36.26 171.48 36.26 207.94 48.43 207.81" style="fill:#010202"/><polygon points="72.72 304.99 48.36 304.99 48.36 280.72 36.26 280.72 36.26 317.18 72.72 317.18 72.72 304.99" style="fill:#010202"/><polygon points="169.81 280.72 169.81 304.99 145.47 304.99 145.47 317.13 181.93 317.13 181.93 280.67 169.81 280.72" style="fill:#010202"/></g><path d="M188.1,22.56H30a30,30,0,0,0-30,30V445.09a30.1,30.1,0,0,0,30.09,30.1h158a30.1,30.1,0,0,0,30.09-30.1h0V52.57A30.06,30.06,0,0,0,188.1,22.56Zm22.34,420.85a24.26,24.26,0,0,1-24.26,24.26H32a24.28,24.28,0,0,1-24.34-24.2V54.25a24.22,24.22,0,0,1,24.2-24.2H44.79a3.38,3.38,0,0,1,3.38,3.36h0v2.23a12.21,12.21,0,0,0,12.2,12.19h97.37A12.18,12.18,0,0,0,170,35.73h0V33.41A3.37,3.37,0,0,1,173.3,30h13a24.2,24.2,0,0,1,24.21,24.18h0Z" style="fill:#010101"/><g style="clip-path:url(#a3a57511-7dd1-438e-87b8-e949f945ce3e)"><g id="a0a1b29f-6ab0-45de-a629-99830e2c0339" data-name="reg-scan-bars"><rect x="4.38" y="27.57" width="209.34" height="2.48" style="fill:#cd151b"/><rect x="4.4" y="22.11" width="209.34" height="1.25" style="fill:#cd151b;opacity:0.8999999761581421;isolation:isolate"/><rect x="4.4" y="16.51" width="209.34" height="1.25" style="fill:#cd151b;opacity:0.800000011920929;isolation:isolate"/><rect x="4.4" y="11.06" width="209.34" height="1.25" style="fill:#cd151b;opacity:0.699999988079071;isolation:isolate"/><rect x="4.4" y="5.61" width="209.34" height="1.25" style="fill:#cd151b;opacity:0.6000000238418579;isolation:isolate"/><rect x="4.4" width="209.34" height="1.25" style="fill:#cd151b;opacity:0.5;isolation:isolate"/></g></g><g id="ebd92a20-9700-44b2-8f09-1d082f056fd4" data-name="reg-qrcode-group"><g id="a4a9ca14-cb11-4b4f-bcb9-3ca05a546fe8" data-name="reg-qrcode"><polygon points="102.99 220.02 96.92 220.02 96.92 207.88 102.99 207.88 102.99 213.95 115.12 213.95 115.12 220.02 109.05 220.02 109.05 226.1 102.99 226.1 102.99 220.02" style="fill:#010202"/><rect x="109.05" y="286.79" width="6.07" height="6.07" style="fill:#010202"/><polygon points="109.05 201.82 109.05 195.75 96.92 195.75 96.92 201.82 102.99 201.82 102.99 207.88 109.05 207.88 109.05 201.82" style="fill:#010202"/><path d="M127.26,195.75v30.39h24.33v6.07h6V195.75ZM151.59,220H133.31V201.79h18.28Z" style="fill:#010202"/><polygon points="66.57 232.17 60.5 232.17 60.5 238.23 72.72 238.23 72.72 232.17 66.57 232.17" style="fill:#010202"/><polygon points="66.57 250.4 72.72 250.4 72.72 256.47 78.77 256.47 78.77 238.24 72.72 238.24 72.72 244.31 60.57 244.31 60.57 256.46 66.64 256.46 66.57 250.4" style="fill:#010202"/><rect x="96.92" y="256.47" width="6.07" height="12.13" style="fill:#010202"/><rect x="115.12" y="195.78" width="6.07" height="18.23" style="fill:#010202"/><rect x="115.12" y="220.05" width="6.07" height="6.07" style="fill:#010202"/><rect x="139.42" y="207.91" width="6.07" height="6.07" style="fill:#010202"/><polygon points="78.73 207.91 72.72 207.91 72.72 213.98 78.77 213.98 78.73 207.91" style="fill:#010202"/><path d="M60.5,195.75v30.37H90.87V195.78Zm24.3,24.33H66.59V201.85H84.82Z" style="fill:#010202"/><polygon points="139.42 232.2 139.42 238.25 133.37 238.25 133.37 232.2 121.22 232.2 121.22 238.25 115.15 238.25 115.15 232.2 96.92 232.2 96.92 226.12 90.85 226.12 90.85 232.2 84.78 232.2 84.78 238.25 90.85 238.25 90.85 250.4 96.92 250.4 96.92 244.33 102.99 244.33 102.99 256.47 109.05 256.47 109.05 244.33 127.28 244.33 127.28 250.4 115.14 250.4 115.14 256.47 127.28 256.47 127.28 262.54 133.35 262.54 133.35 244.31 139.41 244.31 139.41 250.38 145.48 250.38 145.48 262.53 151.55 262.53 151.55 256.46 157.63 256.46 157.63 250.38 151.55 250.38 151.55 244.31 145.48 244.31 145.48 238.24 151.55 238.24 151.55 232.18 139.42 232.2" style="fill:#010202"/><rect x="72.72" y="274.64" width="6.06" height="6.07" style="fill:#010202"/><path d="M60.59,262.48l-.07,30.35H91V262.48Zm24.3,24.28H66.64V268.53H84.87Z" style="fill:#010202"/><rect x="133.41" y="262.47" width="6.06" height="6.06" style="fill:#010202"/><polygon points="139.47 274.6 133.41 274.6 133.41 280.67 127.27 280.67 127.27 274.6 121.2 274.6 121.2 268.53 127.27 268.53 127.27 262.47 115.12 262.47 115.12 256.4 109.05 256.4 109.05 268.53 102.99 268.53 102.99 274.6 96.92 274.6 96.92 292.83 102.99 292.83 102.99 286.76 109.05 286.76 109.05 280.69 121.2 280.69 121.2 292.83 127.27 292.83 127.27 286.76 133.34 286.76 133.34 292.83 145.47 292.83 145.47 286.76 151.54 286.76 151.54 280.69 139.4 280.69 139.47 274.6" style="fill:#010202"/><polygon points="84.85 256.37 90.92 256.37 90.92 250.3 84.78 250.3 84.85 256.37" style="fill:#010202"/><polygon points="145.54 268.5 145.54 274.57 151.61 274.57 151.61 280.65 157.68 280.65 157.68 262.42 151.61 262.42 151.61 268.47 145.54 268.5" style="fill:#010202"/><rect x="151.61" y="286.72" width="6.07" height="6.07" style="fill:#010202"/><rect x="151.61" y="238.16" width="6.07" height="6.07" style="fill:#010202"/></g><g id="a358b9c1-13b3-47cc-9aa1-836f92b84226" data-name="reg-qrcode-label" style="opacity:0"><rect x="41.82" y="272.11" width="134.55" height="32" rx="10" style="fill:#fff;stroke:#000;stroke-miterlimit:10;stroke-width:3px"/><path d="M50,283.07a22.06,22.06,0,0,1,3.16-.21A6.61,6.61,0,0,1,57.36,284a4.58,4.58,0,0,1,1.75,3.9,5.25,5.25,0,0,1-1.72,4.19,7.47,7.47,0,0,1-4.78,1.33,19.73,19.73,0,0,1-2.65-.15Zm2.35,8.45a3.94,3.94,0,0,0,.81.05c2.12,0,3.5-1.16,3.5-3.63a3,3,0,0,0-3.25-3.28,4.61,4.61,0,0,0-1.06.09Z"/><path d="M66.81,288.91H63v2.46h4.25v1.92h-6.6V282.94H67v1.92H63V287h3.81Z"/><path d="M71.2,282.94v10.35H68.86V282.94Z"/><path d="M73.23,293.29V282.94H76l2.15,3.79a30.37,30.37,0,0,1,1.69,3.55h0a39.48,39.48,0,0,1-.2-4.33v-3H81.8v10.35H79.35l-2.22-4a37.45,37.45,0,0,1-1.79-3.65h0c.06,1.37.09,2.83.09,4.52v3.12Z"/><path d="M89.29,282.94v10.35H86.94V282.94Z"/><path d="M91.32,293.29V282.94h2.73l2.15,3.79a30.37,30.37,0,0,1,1.69,3.55h0a37.14,37.14,0,0,1-.2-4.33v-3h2.15v10.35H97.43l-2.21-4a37.5,37.5,0,0,1-1.8-3.65h0c.07,1.37.1,2.83.1,4.52v3.12Z"/><path d="M102,290.88a5.94,5.94,0,0,0,2.59.64c1.07,0,1.64-.44,1.64-1.12s-.49-1-1.73-1.46c-1.72-.6-2.84-1.55-2.84-3.06,0-1.76,1.47-3.11,3.91-3.11a6.26,6.26,0,0,1,2.64.52l-.52,1.89a4.89,4.89,0,0,0-2.16-.49c-1,0-1.51.46-1.51,1s.59.95,1.92,1.45c1.83.68,2.69,1.63,2.69,3.09,0,1.74-1.34,3.22-4.18,3.22a6.77,6.77,0,0,1-2.93-.64Z"/><path d="M112.21,284.9h-2.78v-2h8v2h-2.83v8.39h-2.35Z"/><path d="M119.94,290.63l-.74,2.66h-2.42l3.16-10.35H123l3.21,10.35H123.7l-.8-2.66Zm2.62-1.75-.64-2.2c-.18-.61-.37-1.38-.52-2h0c-.16.61-.31,1.39-.48,2l-.61,2.2Z"/><path d="M135.87,292.81a11.47,11.47,0,0,1-3.46.58,5.75,5.75,0,0,1-4.2-1.39,5,5,0,0,1-1.46-3.77c0-3.44,2.51-5.4,5.91-5.4a7.07,7.07,0,0,1,2.87.51l-.49,1.87a5.68,5.68,0,0,0-2.41-.45,3.14,3.14,0,0,0-3.43,3.35,3.11,3.11,0,0,0,3.26,3.39,3.16,3.16,0,0,0,1.15-.15v-2.16H132v-1.83h3.86Z"/><path d="M137.7,283.07a21,21,0,0,1,3.12-.21,5.28,5.28,0,0,1,3.34.81,2.64,2.64,0,0,1,1,2.17,2.76,2.76,0,0,1-1.83,2.55v0a2.64,2.64,0,0,1,1.38,1.94,29.73,29.73,0,0,0,.85,2.92h-2.4a13.8,13.8,0,0,1-.72-2.41c-.28-1.29-.72-1.65-1.67-1.66H140v4.07H137.7Zm2.32,4.46h.92c1.17,0,1.86-.59,1.86-1.49s-.65-1.43-1.72-1.44a6.17,6.17,0,0,0-1.06.07Z"/><path d="M149.36,290.63l-.74,2.66H146.2l3.16-10.35h3.07l3.21,10.35h-2.52l-.8-2.66Zm2.63-1.75-.65-2.2c-.18-.61-.37-1.38-.52-2h0c-.16.61-.31,1.39-.48,2l-.61,2.2Z"/><path d="M165.78,289.32c-.05-1.24-.09-2.74-.09-4.25h-.05c-.32,1.32-.75,2.8-1.15,4l-1.26,4H161.4l-1.1-4c-.34-1.23-.69-2.71-.94-4.06h0c-.06,1.4-.11,3-.18,4.29l-.19,3.93H156.8l.66-10.35h3.12l1,3.45c.32,1.18.64,2.49.87,3.7h0c.29-1.19.64-2.56,1-3.71l1.11-3.44h3.05l.57,10.35h-2.29Z"/></g></g></svg>