<svg id="Ebene_1" data-name="Ebene 1" xmlns="http://www.w3.org/2000/svg" xmlns:xlink="http://www.w3.org/1999/xlink" viewBox="0 0 490.18 156.03"><defs><style>.cls-1,.cls-2,.cls-8{fill:none;}.cls-2{stroke:#010101;stroke-width:7px;}.cls-2,.cls-4,.cls-8{stroke-miterlimit:10;}.cls-3{fill:#010101;}.cls-4,.cls-7{fill:#1d1d1b;}.cls-4{stroke:#fff;}.cls-5{clip-path:url(#clip-path);}.cls-6{fill:#fff;}.cls-8{stroke:#1d1d1b;stroke-width:4px;}</style><clipPath id="clip-path" transform="translate(-40.48 -179.85)"><rect class="cls-1" x="429.38" y="234.93" width="97.07" height="97.07"/></clipPath></defs><title>small_qrscan_explanation</title><line class="cls-2" x1="135.11" y1="103.61" x2="350.86" y2="103.61"/><polyline class="cls-2" points="323.39 131.09 350.86 103.61 323.39 76.14"/><path class="cls-3" d="M83,259.2H76.88V247.06H83v6.07H95.08v6.07H89v6.06H83ZM95.08,332v-6.07H89V332ZM89,241v-6.07H76.88V241H83v6.06H89Zm48.53-6.07v36.4h-6.07v-6.07H107.22V234.93Zm-6.07,24.27V241h-18.2v18.2ZM46.55,271.33H40.48v6.07H52.61v-6.07Zm0,18.2h6.06v6.07h6.07V277.4H52.61v6.06H40.48V295.6h6.07Zm30.33,6.07v12.13H83V295.6Zm24.27-60.67H95.08v18.2h6.07Zm0,30.33V259.2H95.08v6.06Zm18.2-12.13h6.07v-6.07h-6.07Zm-60.67-6.07H52.61v6.07h6.07Zm12.13-12.13v30.33H40.48V234.93ZM64.75,241H46.55v18.2h18.2Zm54.6,30.33v6.07h-6.07v-6.07H101.15v6.07H95.08v-6.07H76.88v-6.07H70.81v6.07H64.75v6.07h6.06v12.13h6.07v-6.07H83V295.6H89V283.46h18.2v6.07H95.08v6.07h12.14v6.07h6.06V283.46h6.07v6.07h6.07v12.14h6.06V295.6h6.07v-6.07h-6.07v-6.07h-6.06V277.4h6.06v-6.07ZM52.61,319.87h6.07V313.8H52.61Zm-12.13-18.2H70.81V332H40.48Zm6.07,24.26h18.2v-18.2H46.55Zm72.8-18.2v-6.06h-6.07v6.06Zm0,6.07h-6.07v6.07h-6.06V313.8h-6.07v-6.07h6.07v-6.06H95.08V295.6H89v12.13H83v6.07H76.88V332H83v-6.07H89v-6.06h12.13V332h6.07v-6.07h6.06V332h12.14v-6.07h6.06v-6.06H119.35Zm-54.6-18.2h6.06v-6.07H64.75Zm60.67,12.13v6.07h6.06v6.07h6.07v-18.2h-6.07v6.06ZM137.55,332v-6.07h-6.07V332Zm0-48.54V277.4h-6.07v6.06Z" transform="translate(-40.48 -179.85)"/><path class="cls-3" d="M279.8,209.16h-3.66v-7.33h3.66v3.66h7.33v3.67h-3.67v3.66H279.8Zm7.33,44v-3.66h-3.67v3.66Zm-3.67-54.94V194.5h-7.32v3.67h3.66v3.66h3.66Zm29.31-3.67v22h-3.66v-3.66H294.45V194.5Zm-3.66,14.66v-11h-11v11Zm-51.29,7.32h-3.66v3.66h7.33v-3.66Zm0,11h3.67v3.66h3.66v-11h-3.66v3.67h-7.33v7.32h3.66Zm18.32,3.66v7.33h3.66v-7.33Zm14.65-36.63h-3.66v11h3.66Zm0,18.32v-3.66h-3.66v3.66Zm11-7.33h3.66v-3.66h-3.66Zm-36.63-3.66h-3.66v3.66h3.66Zm7.33-7.33v18.32H254.16V194.5Zm-3.67,3.67h-11v11h11Zm33,18.31v3.66h-3.66v-3.66h-7.33v3.66h-3.66v-3.66h-11v-3.66h-3.66v3.66h-3.67v3.66h3.67v7.33h3.66v-3.66h3.66v7.32h3.66v-7.32h11v3.66h-7.32v3.66h7.32v3.67h3.67v-11h3.66v3.66h3.66v7.33h3.67v-3.67h3.66v-3.66h-3.66v-3.66h-3.67v-3.67h3.67v-3.66Zm-40.29,29.31h3.66v-3.67h-3.66Zm-7.33-11h18.32v18.31H254.16Zm3.66,14.65h11v-11h-11Zm44-11V234.8h-3.66v3.66Zm0,3.66h-3.66v3.67h-3.67v-3.67h-3.66v-3.66h3.66V234.8h-7.32v-3.67h-3.67v7.33H279.8v3.66h-3.66v11h3.66v-3.66h3.66v-3.66h7.33v7.32h3.66v-3.66h3.67v3.66h7.32v-3.66h3.67v-3.66h-7.33Zm-33-11h3.67v-3.66h-3.67Zm36.63,7.33v3.66h3.67v3.67h3.66v-11h-3.66v3.66Zm7.33,14.65v-3.66h-3.66v3.66Zm0-29.3v-3.67h-3.66v3.67Zm-7.33-36.63h14.65v14.65h7.33v-22h-22Zm-58.61,14.65V187.18h14.66v-7.33h-22v22Zm14.66,58.61H246.83V245.79h-7.32v22h22Zm58.6-14.65v14.65H305.44v7.32h22v-22Z" transform="translate(-40.48 -179.85)"/><rect class="cls-4" x="208.37" y="46.46" width="69.24" height="5.01"/><rect class="cls-4" x="208.37" y="43.13" width="69.24" height="3.11"/><rect class="cls-4" x="208.37" y="39.8" width="69.24" height="3.11"/><g class="cls-5"><path class="cls-3" d="M471.85,259.2h-6.07V247.06h6.07v6.07H484v6.07h-6.07v6.06h-6.06Zm6.06-18.2v-6.07H465.78V241h6.07v6.06h6.06Zm48.54-6.07v36.4h-6.07v-6.07H496.11V234.93Zm-6.07,24.27V241h-18.2v18.2Zm-84.94,12.13h-6.06v6.07h12.13v-6.07Zm0,18.2h6.07v6.07h6.07V277.4h-6.07v6.06H429.38V295.6h6.06Zm30.34,6.07v12.13h12.13V295.6Zm24.27-60.67H484v18.2h6.07Zm0,30.33V259.2H484v6.06Zm18.2-12.13h6.06v-6.07h-6.06Zm-60.67-6.07h-6.07v6.07h6.07Zm12.13-12.13v30.33H429.38V234.93ZM453.65,241H435.44v18.2h18.21Zm66.73,42.46h-6.07V277.4h6.07v-6.07H508.25v6.07h-6.07v-6.07H490.05v6.07H484v-6.07h-18.2v-6.07h-6.07v6.07h-6.06v6.07h6.06v12.13h6.07v-6.07h6.07V295.6h6.06V283.46h18.2v6.07H484v6.07h12.13v6.07h6.07V283.46h6.07v6.07h6.06v12.14h6.07Zm-78.87,36.41h6.07V313.8h-6.07Zm-12.13-18.2h30.33V332H429.38Zm6.06,24.26h18.21v-18.2H435.44Zm72.81-18.2v-6.06h-6.07v6.06ZM490.05,332V307.73h6.06v-6.06H484V295.6h-6.07v12.13h-6.06v6.07h-6.07V332h6.07v-6.07h6.06V332Zm-36.4-36.4h6.06v-6.07h-6.06Zm72.8-12.14V277.4h-6.07v6.06Z" transform="translate(-40.48 -179.85)"/><path class="cls-6" d="M529.89,307.3v28.13H501.76a28.14,28.14,0,1,1,28.13-28.13Z" transform="translate(-40.48 -179.85)"/><path class="cls-7" d="M519.09,301c-.27-6.09-3.67-9.49-9.78-9.78-1.78-.07-2.35-.09-6.93-.09s-5.12,0-6.91.11c-6.11.27-9.49,3.65-9.78,9.76-.09,1.78-.11,2.35-.11,6.93s0,5.12.11,6.91c.29,6.11,3.67,9.51,9.78,9.78,1.79.09,2.35.11,6.91.11s5.15,0,6.93-.11c6.11-.27,9.49-3.67,9.78-9.78.09-1.79.09-2.35.09-6.91S519.18,302.79,519.09,301Zm-3,13.71c-.21,4.52-2.33,6.68-6.89,6.89-1.78.08-2.31.1-6.8.1s-5,0-6.78-.1c-4.56-.21-6.68-2.37-6.89-6.89-.08-1.76-.08-2.31-.08-6.78s0-5,.08-6.8c.21-4.52,2.33-6.68,6.89-6.89,1.78-.06,2.31-.09,6.78-.09s5,0,6.8.09c4.56.21,6.68,2.37,6.89,6.91.06,1.76.09,2.29.09,6.78S516.13,313,516.07,314.72Z" transform="translate(-40.48 -179.85)"/><path class="cls-7" d="M513.38,299a2,2,0,1,1-2-2A2,2,0,0,1,513.38,299Z" transform="translate(-40.48 -179.85)"/><path class="cls-7" d="M502.38,299.31a8.62,8.62,0,1,0,8.63,8.63A8.63,8.63,0,0,0,502.38,299.31Zm0,14.21a5.6,5.6,0,1,1,5.61-5.58A5.57,5.57,0,0,1,502.38,313.52Z" transform="translate(-40.48 -179.85)"/><path class="cls-8" d="M492.86,334a28.14,28.14,0,1,1,35.88-34.68" transform="translate(-40.48 -179.85)"/></g></svg>