<?xml version="1.0" encoding="utf-8"?>
<!-- Generator: Adobe Illustrator 25.3.1, SVG Export Plug-In . SVG Version: 6.00 Build 0)  -->
<svg version="1.1" id="Layer_1" xmlns="http://www.w3.org/2000/svg" xmlns:xlink="http://www.w3.org/1999/xlink" x="0px" y="0px"
	 viewBox="0 0 24 24" style="enable-background:new 0 0 24 24;" xml:space="preserve">
<style type="text/css">
	.st0{fill:#FFED00;}
</style>
<circle class="st0" cx="12" cy="12" r="12"/>
<path d="M21,17L17.7,18l-0.9-3.2l1.4,0.8c0.6-1,0.9-2.2,0.9-3.5c0-2.9-1.8-5.5-4.3-6.6l0.5-1.5c3.2,1.3,5.4,4.4,5.4,8.1
	c0,1.6-0.4,3-1.1,4.3C19.6,16.3,21,17,21,17z M12,19.2c-2.7,0-5-1.5-6.2-3.6l1.4-0.8l-3.3-0.9L3,17.1l1.3-0.8
	c1.5,2.6,4.3,4.4,7.6,4.4c1.8,0,3.4-0.5,4.8-1.4l-1-1.3C14.6,18.8,13.3,19.2,12,19.2z M4.8,12.1L4.8,12.1c0-3.8,2.8-6.8,6.4-7.2
	l0,1.5L13.6,4l-2.4-2.4l0,1.6c-4.5,0.4-8,4.1-8,8.7l0,0.3C3.2,12.3,4.8,12.1,4.8,12.1z M9.7,11.6c-0.2,0.7-0.1,1.4,0.3,2
	c0.7-1.1,2.1-2.2,3-2.4c-1.9,1.4-3,3.3-3.1,5.5h0.8c0-0.8,0.1-1.9,0.4-2.3c0.7,0.2,1.5,0.1,2.2-0.5c1.4-1.2,0.9-4.1,3.3-4.4
	C13.3,7.8,10.3,9.6,9.7,11.6z"/>
</svg>
